{
.appVersion = "3343";
.formatVersion = 3;
DisplayStrings = (
"abc ",
"?",
"¿",
"&",
"̃",
"absolution motherfuckers-----",
"-",
"&$+×÷=><something>",
CRI,
"Sacharine Trust",
"Craig Salacious",
"AÁÂÄÀĄÅÃÆBCĆČÇDĎEÉ/Ecaron. ÊËÈĘFGHIÍÎÏÌJKLĹĽŁMNŃŇÑOÓÔÖÒŐØÕŒPQRŔŘSŚŠẞTŤUÚÛÜÙŰŮVWXYÝŸZŹŽŻaáâäàąåãæbcćčçdďeéěêëèęfghiıíîïìjȷklĺľłmnńňñoóôöòőøõœpqrŕřsśšßtťunúûüùűůvwxyýÿzźžż0123456789 .,:;!¡?¿*//-(){}[]‚„“”‘’\"'&$+×÷=><̧̈̇̀́̋̂̌̊̃",
"The other option is to close out the terminals to a horizonal end, like I have here on the C, E, S, 
a, c, e, and s. 

They need to be refined still... ",
"Gae&$",
"a    e&$",
"a e &$",
e,
e,
$,
SC,
S,
"ŚŠ"
);
axes = (
{
name = Weight;
tag = wght;
}
);
date = "2025-06-22 16:38:40 +0000";
familyName = Juncture;
fontMaster = (
{
axesValues = (
10
);
iconName = Light_SemiExtended;
id = m004;
metricValues = (
{
pos = 680;
},
{
over = 12;
pos = 650;
},
{
over = 12;
pos = 450;
},
{
over = -12;
},
{
over = -12;
pos = -200;
},
{
}
);
name = thin;
userData = {
GSCornerRadius = 15;
GSOffsetHorizontal = -36;
GSOffsetVertical = -36;
"Letterink-NibData" = {
AngleInDegrees = 45;
MainAxisWidth = 30;
MinorAxisWidth = 15;
};
};
},
{
axesValues = (
60
);
id = m002;
metricValues = (
{
pos = 680;
},
{
over = 12;
pos = 650;
},
{
over = 12;
pos = 450;
},
{
over = -12;
},
{
over = -12;
pos = -200;
},
{
}
);
name = semibold;
userData = {
GSCornerRadius = 10;
GSExtrudeAngle = 30;
GSExtrudeOffset = 15;
GSOffsetHorizontal = 15;
GSOffsetVertical = 10;
"Letterink-NibData" = {
AngleInDegrees = 45;
MainAxisWidth = 30;
MinorAxisWidth = 15;
};
};
}
);
glyphs = (
{
glyphname = A;
lastChange = "2025-08-05 15:19:57 +0000";
layers = (
{
anchors = (
{
name = bottom;
pos = (306,0);
},
{
name = ogonek;
pos = (550,10);
},
{
name = top;
pos = (306,650);
}
);
layerId = m002;
shapes = (
{
closed = 1;
nodes = (
(363,650,l),
(252,650,l),
(476,0,l),
(590,0,l)
);
},
{
closed = 1;
nodes = (
(133,0,l),
(357,650,l),
(248,650,l),
(21,0,l)
);
},
{
closed = 1;
nodes = (
(466,242,l),
(154,242,l),
(154,147,l),
(466,147,l)
);
}
);
width = 611;
},
{
anchors = (
{
name = bottom;
pos = (277,0);
},
{
name = ogonek;
pos = (499,10);
},
{
name = top;
pos = (277,650);
}
);
layerId = m004;
shapes = (
{
closed = 1;
nodes = (
(298,650,l),
(257,650,l),
(494,0,l),
(534,0,l)
);
},
{
closed = 1;
nodes = (
(60,0,l),
(298,650,l),
(257,650,l),
(20,0,l)
);
},
{
closed = 1;
nodes = (
(443,230,l),
(118,230,l),
(118,200,l),
(443,200,l)
);
}
);
width = 554;
}
);
metricRight = "=|";
unicode = 65;
},
{
glyphname = AE;
lastChange = "2025-08-05 15:19:57 +0000";
layers = (
{
anchors = (
{
name = bottom;
pos = (416,0);
},
{
name = top;
pos = (416,650);
}
);
background = {
anchors = (
{
name = bottom;
pos = (300,0);
},
{
name = top;
pos = (300,650);
}
);
shapes = (
{
closed = 1;
nodes = (
(430,0,l),
(843,0,l),
(843,95,l),
(542,95,l),
(542,290,l),
(716,290,l),
(716,385,l),
(542,385,l),
(542,555,l),
(843,555,l),
(843,650,l),
(430,650,l)
);
},
{
closed = 1;
nodes = (
(143,0,l),
(547,650,l),
(428,650,l),
(21,0,l)
);
},
{
closed = 1;
nodes = (
(536,222,l),
(184,222,l),
(184,127,l),
(536,127,l)
);
}
);
};
layerId = m004;
shapes = (
{
closed = 1;
nodes = (
(427,0,l),
(837,0,l),
(837,32,l),
(463,32,l),
(463,322,l),
(700,322,l),
(700,354,l),
(463,354,l),
(463,618,l),
(837,618,l),
(837,650,l),
(427,650,l)
);
},
{
closed = 1;
nodes = (
(60,0,l),
(468,650,l),
(427,650,l),
(20,0,l)
);
},
{
closed = 1;
nodes = (
(443,240,l),
(178,240,l),
(178,210,l),
(443,210,l)
);
}
);
width = 831;
},
{
anchors = (
{
name = bottom;
pos = (442,0);
},
{
name = top;
pos = (442,650);
}
);
layerId = m002;
shapes = (
{
closed = 1;
nodes = (
(430,0,l),
(843,0,l),
(843,95,l),
(542,95,l),
(542,290,l),
(716,290,l),
(716,385,l),
(542,385,l),
(542,555,l),
(843,555,l),
(843,650,l),
(430,650,l)
);
},
{
closed = 1;
nodes = (
(143,0,l),
(547,650,l),
(428,650,l),
(21,0,l)
);
},
{
closed = 1;
nodes = (
(536,222,l),
(184,222,l),
(184,127,l),
(536,127,l)
);
}
);
width = 883;
}
);
metricLeft = "=A";
metricRight = "=E";
unicode = 198;
},
{
glyphname = B;
lastChange = "2025-08-05 15:19:57 +0000";
layers = (
{
anchors = (
{
name = bottom;
pos = (286,0);
},
{
name = center;
pos = (143,163);
},
{
name = top;
pos = (286,650);
}
);
layerId = m002;
shapes = (
{
closed = 1;
nodes = (
(333,0,ls),
(440,0,o),
(528,74,o),
(528,201,cs),
(528,272,o),
(485,335,o),
(429,370,c),
(449,399,o),
(468,437,o),
(468,479,cs),
(468,577,o),
(408,650,o),
(273,650,cs),
(70,650,l),
(70,0,l)
);
},
{
closed = 1;
nodes = (
(182,301,l),
(321,301,ls),
(383,301,o),
(428,254,o),
(428,198,cs),
(428,129,o),
(383,95,o),
(321,95,cs),
(182,95,l)
);
},
{
closed = 1;
nodes = (
(182,559,l),
(273,559,ls),
(342,559,o),
(368,511,o),
(368,474,cs),
(368,433,o),
(343,393,o),
(273,392,c),
(182,392,l)
);
}
);
width = 571;
},
{
anchors = (
{
name = bottom;
pos = (277,0);
},
{
name = center;
pos = (138,163);
},
{
name = top;
pos = (277,650);
}
);
layerId = m004;
shapes = (
{
closed = 1;
nodes = (
(324,0,ls),
(441,0,o),
(504,59,o),
(504,181,cs),
(504,326,o),
(421,352,o),
(367,356,c),
(410,364,o),
(435,421,o),
(435,491,cs),
(435,561,o),
(416,650,o),
(275,650,cs),
(84,650,l),
(84,0,l)
);
},
{
closed = 1;
nodes = (
(120,332,l),
(332,332,ls),
(414,332,o),
(468,286,o),
(468,181,cs),
(468,85,o),
(421,32,o),
(332,32,cs),
(120,32,l)
);
},
{
closed = 1;
nodes = (
(120,618,l),
(278,618,ls),
(382,618,o),
(399,551,o),
(399,491,cs),
(399,444,o),
(382,364,o),
(278,364,c),
(120,364,l)
);
}
);
width = 553;
}
);
metricLeft = "=H";
unicode = 66;
},
{
glyphname = C;
lastChange = "2025-08-05 15:23:57 +0000";
layers = (
{
anchors = (
{
name = bottom;
pos = (265,0);
},
{
name = top;
pos = (265,650);
}
);
layerId = m002;
shapes = (
{
closed = 1;
nodes = (
(411,-12,o),
(579,19,o),
(586,191,c),
(482,191,l),
(475,108,o),
(403,86,o),
(325,86,cs),
(220,86,o),
(159,156,o),
(159,325,cs),
(159,494,o),
(220,564,o),
(325,564,cs),
(403,564,o),
(475,542,o),
(482,459,c),
(586,459,l),
(579,631,o),
(411,662,o),
(325,662,cs),
(165,662,o),
(45,567,o),
(45,325,cs),
(45,83,o),
(165,-12,o),
(325,-12,cs)
);
}
);
width = 641;
},
{
anchors = (
{
name = bottom;
pos = (263,0);
},
{
name = top;
pos = (263,650);
}
);
background = {
shapes = (
{
closed = 1;
nodes = (
(201,17,o),
(99,105,o),
(99,325,cs),
(99,544,o),
(201,633,o),
(334,634,cs),
(467,633,o),
(569,544,o),
(569,325,cs),
(569,105,o),
(467,17,o),
(334,16,cs)
);
},
{
closed = 1;
nodes = (
(494,-16,o),
(608,83,o),
(608,325,cs),
(608,567,o),
(494,666,o),
(334,666,cs),
(175,666,o),
(60,567,o),
(60,325,cs),
(60,83,o),
(175,-16,o),
(334,-16,cs)
);
}
);
};
layerId = m004;
shapes = (
{
closed = 1;
nodes = (
(462,-16,o),
(545,50,o),
(560,132,c),
(521,132,l),
(507,63,o),
(431,17,o),
(344,16,cs),
(188,14,o),
(99,125,o),
(99,325,cs),
(99,525,o),
(188,636,o),
(344,634,cs),
(431,633,o),
(507,587,o),
(521,518,c),
(560,518,l),
(545,600,o),
(462,666,o),
(344,666,cs),
(175,666,o),
(60,567,o),
(60,325,cs),
(60,83,o),
(175,-16,o),
(344,-16,cs)
);
}
);
width = 615;
}
);
metricLeft = O;
metricRight = "=55";
unicode = 67;
},
{
glyphname = D;
lastChange = "2025-08-05 15:19:57 +0000";
layers = (
{
anchors = (
{
name = bottom;
pos = (314,0);
},
{
name = center;
pos = (157,325);
},
{
name = top;
pos = (314,650);
}
);
layerId = m002;
shapes = (
{
closed = 1;
nodes = (
(70,0,l),
(280,0,ls),
(460,0,o),
(583,82,o),
(583,323,cs),
(583,558,o),
(460,650,o),
(280,650,cs),
(70,650,l)
);
},
{
closed = 1;
nodes = (
(182,555,l),
(278,555,ls),
(411,555,o),
(472,490,o),
(472,323,cs),
(472,151,o),
(411,95,o),
(278,95,cs),
(182,95,l)
);
}
);
width = 628;
},
{
anchors = (
{
name = bottom;
pos = (310,0);
},
{
name = center;
pos = (155,325);
},
{
name = top;
pos = (310,650);
}
);
layerId = m004;
shapes = (
{
closed = 1;
nodes = (
(84,0,l),
(297,0,ls),
(457,0,o),
(560,82,o),
(560,323,cs),
(560,558,o),
(457,650,o),
(297,650,cs),
(84,650,l)
);
},
{
closed = 1;
nodes = (
(120,618,l),
(295,618,ls),
(448,618,o),
(521,520,o),
(521,323,cs),
(521,121,o),
(448,32,o),
(295,32,cs),
(120,32,l)
);
}
);
width = 620;
}
);
metricLeft = "=H";
metricRight = "=O";
unicode = 68;
},
{
glyphname = E;
lastChange = "2025-08-05 15:19:57 +0000";
layers = (
{
anchors = (
{
name = bottom;
pos = (282,0);
},
{
name = ogonek;
pos = (507,10);
},
{
name = top;
pos = (282,650);
},
{
name = topleft;
pos = (20,650);
}
);
layerId = m002;
shapes = (
{
closed = 1;
nodes = (
(70,0,l),
(523,0,l),
(523,95,l),
(182,95,l),
(182,290,l),
(396,290,l),
(396,385,l),
(182,385,l),
(182,555,l),
(523,555,l),
(523,650,l),
(70,650,l)
);
}
);
width = 563;
},
{
anchors = (
{
name = bottom;
pos = (244,0);
},
{
name = ogonek;
pos = (439,10);
},
{
name = top;
pos = (244,650);
},
{
name = topleft;
pos = (20,650);
}
);
layerId = m004;
shapes = (
{
closed = 1;
nodes = (
(84,0,l),
(494,0,l),
(494,32,l),
(120,32,l),
(120,322,l),
(357,322,l),
(357,354,l),
(120,354,l),
(120,618,l),
(494,618,l),
(494,650,l),
(84,650,l)
);
}
);
width = 488;
}
);
metricLeft = "=H";
unicode = 69;
},
{
glyphname = F;
lastChange = "2025-08-05 15:19:57 +0000";
layers = (
{
anchors = (
{
name = bottom;
pos = (277,0);
},
{
name = top;
pos = (277,650);
}
);
layerId = m002;
shapes = (
{
closed = 1;
nodes = (
(70,0,l),
(182,0,l),
(182,260,l),
(416,260,l),
(416,355,l),
(182,355,l),
(182,555,l),
(523,555,l),
(523,650,l),
(70,650,l)
);
}
);
width = 554;
},
{
anchors = (
{
name = bottom;
pos = (242,0);
},
{
name = top;
pos = (242,650);
}
);
layerId = m004;
shapes = (
{
closed = 1;
nodes = (
(84,0,l),
(120,0,l),
(120,291,l),
(387,291,l),
(387,323,l),
(120,323,l),
(120,618,l),
(504,618,l),
(504,650,l),
(84,650,l)
);
}
);
width = 484;
}
);
metricLeft = "=H";
unicode = 70;
},
{
glyphname = G;
lastChange = "2025-08-05 15:19:57 +0000";
layers = (
{
background = {
shapes = (
{
closed = 1;
nodes = (
(568,326,l),
(395,326,l),
(395,294,l),
(532,294,l),
(532,174,l),
(512,109,o),
(447,17,o),
(335,16,cs),
(189,15,o),
(99,119,o),
(99,325,cs),
(99,326,ls),
(99,525,o),
(188,636,o),
(344,634,cs),
(431,633,o),
(507,587,o),
(521,518,c),
(560,518,l),
(545,600,o),
(462,666,o),
(344,666,cs),
(175,666,o),
(60,566,o),
(60,327,cs),
(60,326,l),
(60,325,ls),
(60,83,o),
(175,-16,o),
(329,-16,cs),
(401,-16,o),
(483,20,o),
(532,93,c),
(532,-2,l),
(568,-2,l)
);
}
);
};
layerId = m004;
shapes = (
{
closed = 1;
nodes = (
(568,326,l),
(395,326,l),
(395,294,l),
(532,294,l),
(532,174,l),
(512,109,o),
(447,17,o),
(335,16,cs),
(189,15,o),
(99,119,o),
(99,325,cs),
(99,526,o),
(188,636,o),
(344,634,cs),
(431,633,o),
(507,587,o),
(521,518,c),
(560,518,l),
(545,600,o),
(462,666,o),
(344,666,cs),
(175,666,o),
(60,566,o),
(60,327,cs),
(60,83,o),
(175,-16,o),
(329,-16,cs),
(401,-16,o),
(483,20,o),
(532,93,c),
(532,-2,l),
(568,-2,l)
);
}
);
width = 600;
},
{
layerId = m002;
shapes = (
{
closed = 1;
nodes = (
(597,326,l),
(370,326,l),
(370,231,l),
(486,231,l),
(485,157,ls),
(485,144,o),
(440,88,o),
(338,88,cs),
(253,88,o),
(156,129,o),
(156,325,cs),
(156,521,o),
(234,564,o),
(339,564,cs),
(417,564,o),
(489,542,o),
(496,459,c),
(600,459,l),
(593,631,o),
(425,662,o),
(339,662,cs),
(180,662,o),
(45,592,o),
(45,325,cs),
(45,58,o),
(200,-12,o),
(309,-12,cs),
(420,-12,o),
(487,33,o),
(486,45,c),
(496,-2,l),
(597,-2,l)
);
}
);
width = 600;
}
);
unicode = 71;
},
{
glyphname = H;
lastChange = "2025-08-05 15:19:57 +0000";
layers = (
{
anchors = (
{
name = bottom;
pos = (318,0);
},
{
name = center;
pos = (318,488);
},
{
name = top;
pos = (318,650);
},
{
name = topleft;
pos = (20,650);
}
);
layerId = m002;
shapes = (
{
closed = 1;
nodes = (
(70,2,l),
(182,2,l),
(182,650,l),
(70,650,l)
);
},
{
closed = 1;
nodes = (
(454,2,l),
(566,2,l),
(566,650,l),
(454,650,l)
);
},
{
closed = 1;
nodes = (
(502,289,l),
(502,391,l),
(96,391,l),
(96,289,l)
);
}
);
width = 636;
},
{
anchors = (
{
name = bottom;
pos = (314,0);
},
{
name = center;
pos = (314,488);
},
{
name = top;
pos = (314,650);
},
{
name = topleft;
pos = (20,650);
}
);
layerId = m004;
shapes = (
{
closed = 1;
nodes = (
(84,2,l),
(120,2,l),
(120,650,l),
(84,650,l)
);
},
{
closed = 1;
nodes = (
(508,2,l),
(544,2,l),
(544,650,l),
(508,650,l)
);
},
{
closed = 1;
nodes = (
(513,317,l),
(513,349,l),
(110,349,l),
(110,317,l)
);
}
);
width = 628;
}
);
metricRight = "=|";
unicode = 72;
},
{
glyphname = I;
lastChange = "2025-08-05 15:19:57 +0000";
layers = (
{
anchors = (
{
name = bottom;
pos = (126,0);
},
{
name = ogonek;
pos = (227,10);
},
{
name = top;
pos = (126,650);
},
{
name = topleft;
pos = (20,650);
}
);
layerId = m002;
shapes = (
{
closed = 1;
nodes = (
(70,650,l),
(70,0,l),
(182,0,l),
(182,650,l)
);
}
);
width = 252;
},
{
anchors = (
{
name = bottom;
pos = (102,0);
},
{
name = ogonek;
pos = (184,10);
},
{
name = top;
pos = (102,650);
},
{
name = topleft;
pos = (20,650);
}
);
layerId = m004;
shapes = (
{
closed = 1;
nodes = (
(84,650,l),
(84,0,l),
(120,0,l),
(120,650,l)
);
}
);
width = 204;
}
);
metricLeft = H;
metricRight = H;
unicode = 73;
},
{
glyphname = J;
lastChange = "2025-08-05 15:19:57 +0000";
layers = (
{
anchors = (
{
name = bottom;
pos = (211,0);
},
{
name = top;
pos = (211,650);
}
);
layerId = m002;
shapes = (
{
closed = 1;
nodes = (
(280,-12,o),
(352,57,o),
(352,201,cs),
(352,650,l),
(240,650,l),
(240,207,ls),
(240,134,o),
(223,83,o),
(169,83,cs),
(131,83,o),
(58,89,o),
(8,99,c),
(8,4,l),
(58,-5,o),
(122,-12,o),
(168,-12,cs)
);
}
);
width = 422;
},
{
anchors = (
{
name = bottom;
pos = (259,0);
},
{
name = top;
pos = (259,650);
}
);
layerId = m004;
shapes = (
{
closed = 1;
nodes = (
(363,-16,o),
(434,37,o),
(434,197,cs),
(434,650,l),
(398,650,l),
(398,187,ls),
(398,75,o),
(346,16,o),
(277,16,cs),
(230,16,o),
(176,21,o),
(130,32,c),
(130,0,l),
(179,-12,o),
(235,-16,o),
(277,-16,cs)
);
}
);
width = 518;
}
);
metricRight = "=H";
unicode = 74;
},
{
glyphname = K;
lastChange = "2025-08-05 15:19:57 +0000";
layers = (
{
anchors = (
{
name = bottom;
pos = (313,0);
},
{
name = top;
pos = (313,650);
}
);
layerId = m002;
shapes = (
{
closed = 1;
nodes = (
(70,1,l),
(182,1,l),
(182,650,l),
(70,650,l)
);
},
{
closed = 1;
nodes = (
(600,0,l),
(363,407,l),
(236,407,l),
(473,0,l)
);
},
{
closed = 1;
nodes = (
(77,196,l),
(173,196,l),
(582,650,l),
(451,650,l),
(77,233,l)
);
}
);
width = 625;
},
{
anchors = (
{
name = bottom;
pos = (291,0);
},
{
name = top;
pos = (291,650);
}
);
layerId = m004;
shapes = (
{
closed = 1;
nodes = (
(84,1,l),
(120,1,l),
(120,650,l),
(84,650,l)
);
},
{
closed = 1;
nodes = (
(525,0,l),
(268,407,l),
(227,407,l),
(484,0,l)
);
},
{
closed = 1;
nodes = (
(88,206,l),
(100,206,l),
(477,650,l),
(432,650,l),
(88,243,l)
);
}
);
width = 582;
}
);
metricLeft = "=H";
unicode = 75;
},
{
glyphname = L;
lastChange = "2025-08-05 15:19:57 +0000";
layers = (
{
anchors = (
{
name = bottom;
pos = (252,0);
},
{
name = center;
pos = (252,325);
},
{
name = top;
pos = (252,650);
},
{
name = topright;
pos = (484,650);
}
);
layerId = m002;
shapes = (
{
closed = 1;
nodes = (
(70,2,l),
(74,2,l),
(74,0,l),
(483,0,l),
(483,102,l),
(182,102,l),
(182,650,l),
(70,650,l)
);
}
);
width = 504;
},
{
anchors = (
{
name = bottom;
pos = (247,0);
},
{
name = center;
pos = (247,325);
},
{
name = top;
pos = (247,650);
},
{
name = topright;
pos = (473,650);
}
);
layerId = m004;
shapes = (
{
closed = 1;
nodes = (
(84,2,l),
(88,2,l),
(88,0,l),
(447,0,l),
(447,32,l),
(120,32,l),
(120,650,l),
(84,650,l)
);
}
);
width = 493;
}
);
metricLeft = "=H";
unicode = 76;
},
{
glyphname = M;
lastChange = "2025-08-05 15:19:57 +0000";
layers = (
{
anchors = (
{
name = bottom;
pos = (411,0);
},
{
name = top;
pos = (411,650);
}
);
layerId = m002;
shapes = (
{
closed = 1;
nodes = (
(182,1,l),
(182,432,l),
(367,0,l),
(455,0,l),
(640,432,l),
(640,1,l),
(752,1,l),
(752,650,l),
(630,650,l),
(411,130,l),
(192,650,l),
(70,650,l),
(70,1,l)
);
}
);
width = 822;
},
{
anchors = (
{
name = bottom;
pos = (402,0);
},
{
name = top;
pos = (402,650);
}
);
layerId = m004;
shapes = (
{
closed = 1;
nodes = (
(116,1,l),
(116,579,l),
(396,0,l),
(408,0,l),
(688,579,l),
(688,1,l),
(720,1,l),
(720,650,l),
(688,650,l),
(402,57,l),
(116,650,l),
(84,650,l),
(84,1,l)
);
}
);
width = 804;
}
);
metricLeft = H;
metricRight = H;
unicode = 77;
},
{
glyphname = N;
lastChange = "2025-08-05 15:19:57 +0000";
layers = (
{
anchors = (
{
name = bottom;
pos = (336,0);
},
{
name = top;
pos = (336,650);
}
);
layerId = m002;
shapes = (
{
closed = 1;
nodes = (
(70,0,l),
(182,0,l),
(182,466,l),
(490,0,l),
(602,0,l),
(602,650,l),
(490,650,l),
(490,184,l),
(182,650,l),
(70,650,l)
);
}
);
width = 672;
},
{
anchors = (
{
name = bottom;
pos = (352,0);
},
{
name = top;
pos = (352,650);
}
);
layerId = m004;
shapes = (
{
closed = 1;
nodes = (
(84,0,l),
(120,0,l),
(120,585,l),
(584,0,l),
(620,0,l),
(620,650,l),
(584,650,l),
(584,65,l),
(120,650,l),
(84,650,l)
);
}
);
width = 704;
}
);
metricLeft = H;
metricRight = H;
unicode = 78;
},
{
glyphname = O;
lastChange = "2025-08-05 15:19:57 +0000";
layers = (
{
anchors = (
{
name = bottom;
pos = (344,0);
},
{
name = center;
pos = (344,325);
},
{
name = ogonek;
pos = (619,10);
},
{
name = top;
pos = (344,650);
},
{
name = topleft;
pos = (20,650);
},
{
name = topright;
pos = (668,650);
}
);
layerId = m002;
shapes = (
{
closed = 1;
nodes = (
(238,84,o),
(156,134,o),
(156,325,cs),
(156,516,o),
(238,566,o),
(344,567,cs),
(450,566,o),
(532,516,o),
(532,325,cs),
(532,134,o),
(450,84,o),
(344,83,cs)
);
},
{
closed = 1;
nodes = (
(504,-12,o),
(643,63,o),
(643,325,cs),
(643,587,o),
(504,662,o),
(344,662,cs),
(185,662,o),
(45,587,o),
(45,325,cs),
(45,63,o),
(185,-12,o),
(344,-12,cs)
);
}
);
width = 688;
},
{
anchors = (
{
name = bottom;
pos = (334,0);
},
{
name = center;
pos = (334,325);
},
{
name = ogonek;
pos = (601,10);
},
{
name = top;
pos = (334,650);
},
{
name = topleft;
pos = (20,650);
},
{
name = topright;
pos = (648,650);
}
);
layerId = m004;
shapes = (
{
closed = 1;
nodes = (
(201,17,o),
(99,85,o),
(99,325,cs),
(99,564,o),
(201,633,o),
(334,634,cs),
(467,633,o),
(569,564,o),
(569,325,cs),
(569,85,o),
(467,17,o),
(334,16,cs)
);
},
{
closed = 1;
nodes = (
(494,-16,o),
(608,63,o),
(608,325,cs),
(608,587,o),
(494,666,o),
(334,666,cs),
(175,666,o),
(60,587,o),
(60,325,cs),
(60,63,o),
(175,-16,o),
(334,-16,cs)
);
}
);
width = 668;
}
);
metricRight = "=|";
unicode = 79;
},
{
glyphname = Oslash;
lastChange = "2025-08-05 15:19:57 +0000";
layers = (
{
layerId = m004;
shapes = (
{
ref = O;
},
{
closed = 1;
nodes = (
(76,-28,l),
(126,-28,l),
(603,680,l),
(553,680,l)
);
}
);
width = 668;
},
{
layerId = m002;
shapes = (
{
ref = O;
},
{
closed = 1;
nodes = (
(50,-28,l),
(152,-28,l),
(629,680,l),
(527,680,l)
);
}
);
width = 688;
}
);
metricLeft = "=O";
metricRight = "=O";
unicode = 216;
},
{
glyphname = P;
lastChange = "2025-08-05 15:19:57 +0000";
layers = (
{
anchors = (
{
name = bottom;
pos = (270,0);
},
{
name = top;
pos = (270,650);
}
);
layerId = m002;
shapes = (
{
closed = 1;
nodes = (
(182,0,l),
(182,650,l),
(70,650,l),
(70,0,l)
);
},
{
closed = 1;
nodes = (
(124,206,l),
(271,206,ls),
(382,206,o),
(495,262,o),
(495,429,cs),
(495,596,o),
(382,650,o),
(271,650,cs),
(124,650,l),
(124,555,l),
(261,555,ls),
(326,555,o),
(384,530,o),
(384,429,cs),
(384,328,o),
(326,301,o),
(261,301,cs),
(124,301,l)
);
}
);
width = 540;
},
{
anchors = (
{
name = bottom;
pos = (247,0);
},
{
name = top;
pos = (247,650);
}
);
layerId = m004;
shapes = (
{
closed = 1;
nodes = (
(120,0,l),
(120,650,l),
(84,650,l),
(84,0,l)
);
},
{
closed = 1;
nodes = (
(105,256,l),
(252,256,ls),
(363,256,o),
(434,312,o),
(434,454,cs),
(434,596,o),
(363,650,o),
(252,650,cs),
(105,650,l),
(105,618,l),
(242,618,ls),
(357,618,o),
(395,557,o),
(395,454,cs),
(395,350,o),
(357,288,o),
(242,288,cs),
(105,288,l)
);
}
);
width = 494;
}
);
metricLeft = "=H";
metricRight = "=O";
unicode = 80;
},
{
glyphname = Q;
lastChange = "2025-08-05 15:19:57 +0000";
layers = (
{
anchors = (
{
name = bottom;
pos = (344,0);
},
{
name = top;
pos = (344,650);
}
);
layerId = m002;
shapes = (
{
closed = 1;
nodes = (
(156,516,o),
(238,566,o),
(344,567,cs),
(450,566,o),
(532,516,o),
(532,325,cs),
(532,134,o),
(450,84,o),
(344,83,cs),
(238,84,o),
(156,134,o),
(156,325,cs)
);
},
{
closed = 1;
nodes = (
(45,63,o),
(185,-12,o),
(344,-12,cs),
(504,-12,o),
(643,63,o),
(643,325,cs),
(643,587,o),
(504,662,o),
(344,662,cs),
(185,662,o),
(45,587,o),
(45,325,cs)
);
},
{
closed = 1;
nodes = (
(448,96,l),
(587,-71,l),
(671,-1,l),
(532,166,l)
);
}
);
width = 688;
},
{
anchors = (
{
name = bottom;
pos = (327,0);
},
{
name = top;
pos = (327,650);
}
);
background = {
shapes = (
{
closed = 1;
nodes = (
(201,17,o),
(99,105,o),
(99,325,cs),
(99,544,o),
(201,633,o),
(334,634,cs),
(467,633,o),
(569,544,o),
(569,325,cs),
(569,105,o),
(467,17,o),
(334,16,cs)
);
},
{
closed = 1;
nodes = (
(494,-16,o),
(608,83,o),
(608,325,cs),
(608,567,o),
(494,666,o),
(334,666,cs),
(175,666,o),
(60,567,o),
(60,325,cs),
(60,83,o),
(175,-16,o),
(334,-16,cs)
);
}
);
};
layerId = m004;
shapes = (
{
closed = 1;
nodes = (
(99,564,o),
(202,633,o),
(334,634,cs),
(466,633,o),
(569,565,o),
(569,325,cs),
(569,86,o),
(466,17,o),
(334,16,cs),
(202,17,o),
(99,86,o),
(99,325,cs)
);
},
{
closed = 1;
nodes = (
(60,63,o),
(175,-16,o),
(334,-16,cs),
(494,-16,o),
(608,63,o),
(608,325,cs),
(608,587,o),
(494,666,o),
(334,666,cs),
(175,666,o),
(60,587,o),
(60,325,cs)
);
},
{
closed = 1;
nodes = (
(501,73,l),
(589,-33,l),
(621,-6,l),
(532,102,l)
);
}
);
width = 653;
}
);
metricLeft = "=O";
metricRight = "=O-28";
unicode = 81;
},
{
glyphname = R;
lastChange = "2025-08-05 15:19:57 +0000";
layers = (
{
anchors = (
{
name = bottom;
pos = (291,0);
},
{
name = top;
pos = (291,650);
}
);
layerId = m002;
shapes = (
{
closed = 1;
nodes = (
(185,0,l),
(185,650,l),
(70,650,l),
(70,0,l)
);
},
{
closed = 1;
nodes = (
(329,251,ls),
(430,251,o),
(543,282,o),
(543,449,cs),
(543,616,o),
(430,650,o),
(329,650,cs),
(84,650,l),
(84,555,l),
(334,555,ls),
(389,555,o),
(432,540,o),
(432,449,cs),
(432,358,o),
(389,346,o),
(334,346,cs),
(84,346,l),
(84,251,l)
);
},
{
closed = 1;
nodes = (
(550,0,l),
(407,298,l),
(287,298,l),
(433,0,l)
);
}
);
width = 582;
},
{
anchors = (
{
name = bottom;
pos = (265,0);
},
{
name = top;
pos = (265,650);
}
);
layerId = m004;
shapes = (
{
closed = 1;
nodes = (
(120,0,l),
(120,650,l),
(84,650,l),
(84,0,l)
);
},
{
closed = 1;
nodes = (
(292,276,ls),
(403,276,o),
(474,332,o),
(474,464,cs),
(474,596,o),
(403,650,o),
(292,650,cs),
(105,650,l),
(105,618,l),
(282,618,ls),
(397,618,o),
(435,557,o),
(435,464,cs),
(435,370,o),
(397,308,o),
(282,308,cs),
(105,308,l),
(105,276,l)
);
},
{
closed = 1;
nodes = (
(492,0,l),
(322,298,l),
(285,298,l),
(451,0,l)
);
}
);
width = 530;
}
);
metricLeft = "=H";
unicode = 82;
},
{
glyphname = S;
lastChange = "2025-08-05 19:14:39 +0000";
layers = (
{
layerId = m004;
shapes = (
{
closed = 1;
nodes = (
(39,39,o),
(124,-12,o),
(232,-12,cs),
(340,-12,o),
(449,35,o),
(449,155,cs),
(449,234,o),
(439,289,o),
(264,356,cs),
(157,397,o),
(109,426,o),
(109,515,cs),
(109,591,o),
(163,633,o),
(242,633,cs),
(321,633,o),
(375,591,o),
(375,515,c),
(414,515,l),
(414,615,o),
(330,666,o),
(242,666,cs),
(154,666,o),
(70,615,o),
(70,515,cs),
(70,419,o),
(123,370,o),
(244,323,cs),
(359,279,o),
(413,250,o),
(413,155,cs),
(413,59,o),
(322,20,o),
(232,20,cs),
(142,20,o),
(78,63,o),
(78,142,c),
(39,142,l)
);
}
);
width = 484;
},
{
background = {
shapes = (
{
closed = 1;
nodes = (
(402,-12,o),
(479,49,o),
(479,165,cs),
(479,268,o),
(425,311,o),
(291,381,cs),
(195,431,o),
(174,431,o),
(174,495,cs),
(174,552,o),
(198,567,o),
(261,567,cs),
(307,567,o),
(340,552,o),
(340,500,c),
(438,500,l),
(438,629,o),
(343,662,o),
(262,662,cs),
(165,662,o),
(74,624,o),
(74,496,cs),
(74,390,o),
(141,348,o),
(244,291,cs),
(364,225,o),
(379,220,o),
(379,165,cs),
(379,98,o),
(356,83,o),
(277,83,cs),
(209,83,o),
(148,95,o),
(141,178,c),
(37,178,l),
(44,7,o),
(201,-12,o),
(277,-12,cs)
);
}
);
};
layerId = m002;
shapes = (
{
closed = 1;
nodes = (
(44,7,o),
(201,-12,o),
(277,-12,cs),
(402,-12,o),
(479,45,o),
(479,165,cs),
(479,268,o),
(425,311,o),
(291,381,cs),
(195,431,o),
(164,431,o),
(164,495,cs),
(164,552,o),
(203,567,o),
(266,567,cs),
(312,567,o),
(360,552,o),
(360,500,c),
(458,500,l),
(458,629,o),
(348,662,o),
(267,662,cs),
(170,662,o),
(64,624,o),
(64,496,cs),
(64,390,o),
(141,348,o),
(244,291,cs),
(365,224,o),
(379,220,o),
(379,165,cs),
(379,98,o),
(356,83,o),
(277,83,cs),
(209,83,o),
(148,95,o),
(141,178,c),
(37,178,l)
);
}
);
width = 500;
}
);
unicode = 83;
},
{
glyphname = T;
lastChange = "2025-08-05 15:19:57 +0000";
layers = (
{
anchors = (
{
name = bottom;
pos = (283,0);
},
{
name = center;
pos = (283,325);
},
{
name = top;
pos = (283,650);
}
);
layerId = m002;
shapes = (
{
closed = 1;
nodes = (
(36,650,l),
(36,548,l),
(227,548,l),
(227,2,l),
(339,2,l),
(339,548,l),
(530,548,l),
(530,650,l)
);
}
);
width = 566;
},
{
anchors = (
{
name = bottom;
pos = (230,0);
},
{
name = center;
pos = (230,325);
},
{
name = top;
pos = (230,650);
}
);
layerId = m004;
shapes = (
{
closed = 1;
nodes = (
(11,650,l),
(11,618,l),
(212,618,l),
(212,2,l),
(248,2,l),
(248,618,l),
(449,618,l),
(449,650,l)
);
}
);
width = 460;
}
);
metricRight = "=|";
unicode = 84;
},
{
glyphname = U;
lastChange = "2025-08-05 15:19:57 +0000";
layers = (
{
anchors = (
{
name = bottom;
pos = (308,0);
},
{
name = ogonek;
pos = (554,10);
},
{
name = top;
pos = (308,650);
},
{
name = topright;
pos = (596,650);
}
);
background = {
shapes = (
{
closed = 1;
nodes = (
(172,134,o),
(208,83,o),
(308,83,cs),
(413,83,o),
(444,134,o),
(444,261,cs),
(444,650,l),
(553,650,l),
(553,231,ls),
(553,67,o),
(486,-12,o),
(308,-12,cs),
(135,-12,o),
(63,67,o),
(63,231,cs),
(63,650,l),
(172,650,l),
(172,261,ls)
);
}
);
};
layerId = m002;
shapes = (
{
closed = 1;
nodes = (
(444,650,l),
(556,650,l),
(556,241,ls),
(556,77,o),
(481,-12,o),
(308,-12,cs),
(135,-12,o),
(60,77,o),
(60,241,cs),
(60,650,l),
(172,650,l),
(172,261,ls),
(172,134,o),
(203,83,o),
(308,83,cs),
(413,83,o),
(444,134,o),
(444,261,cs)
);
}
);
width = 616;
},
{
anchors = (
{
name = bottom;
pos = (314,0);
},
{
name = ogonek;
pos = (565,10);
},
{
name = top;
pos = (314,650);
},
{
name = topright;
pos = (608,650);
}
);
layerId = m004;
shapes = (
{
closed = 1;
nodes = (
(515,650,l),
(554,650,l),
(554,217,ls),
(554,63,o),
(492,-16,o),
(314,-16,cs),
(136,-16,o),
(74,63,o),
(74,217,cs),
(74,650,l),
(113,650,l),
(113,227,ls),
(113,86,o),
(171,16,o),
(314,16,cs),
(457,16,o),
(515,85,o),
(515,227,cs)
);
}
);
width = 628;
}
);
metricLeft = "=H-10";
metricRight = "=|";
unicode = 85;
},
{
glyphname = V;
lastChange = "2025-08-05 15:19:57 +0000";
layers = (
{
anchors = (
{
name = bottom;
pos = (291,0);
},
{
name = top;
pos = (291,650);
}
);
layerId = m002;
shapes = (
{
closed = 1;
nodes = (
(334,0,l),
(561,650,l),
(445,650,l),
(273,138,l),
(308,138,l),
(137,650,l),
(21,650,l),
(247,0,l)
);
}
);
width = 582;
},
{
anchors = (
{
name = bottom;
pos = (281,0);
},
{
name = top;
pos = (281,650);
}
);
layerId = m004;
shapes = (
{
closed = 1;
nodes = (
(304,0,l),
(541,650,l),
(502,651,l),
(275,20,l),
(287,20,l),
(60,650,l),
(21,650,l),
(258,0,l)
);
}
);
width = 562;
}
);
metricRight = "=|";
unicode = 86;
},
{
glyphname = W;
lastChange = "2025-08-05 15:19:57 +0000";
layers = (
{
anchors = (
{
name = bottom;
pos = (431,0);
},
{
name = top;
pos = (431,650);
}
);
layerId = m002;
shapes = (
{
closed = 1;
nodes = (
(194,0,l),
(285,0,l),
(444,532,l),
(408,531,l),
(574,0,l),
(665,0,l),
(840,650,l),
(735,650,l),
(601,123,l),
(637,123,l),
(476,650,l),
(375,650,l),
(222,123,l),
(260,123,l),
(126,650,l),
(21,650,l)
);
}
);
width = 861;
},
{
anchors = (
{
name = bottom;
pos = (459,0);
},
{
name = top;
pos = (459,650);
}
);
layerId = m004;
shapes = (
{
closed = 1;
nodes = (
(268,0,l),
(306,0,l),
(467,637,l),
(440,637,l),
(614,0,l),
(649,0,l),
(847,650,l),
(812,650,l),
(629,28,l),
(640,28,l),
(471,650,l),
(436,650,l),
(277,28,l),
(290,28,l),
(105,650,l),
(70,650,l)
);
}
);
width = 917;
}
);
metricRight = "=|";
unicode = 87;
},
{
glyphname = X;
lastChange = "2025-08-05 15:19:57 +0000";
layers = (
{
anchors = (
{
name = bottom;
pos = (300,0);
},
{
name = top;
pos = (300,650);
}
);
layerId = m002;
shapes = (
{
closed = 1;
nodes = (
(168,650,l),
(41,650,l),
(452,1,l),
(578,1,l)
);
},
{
closed = 1;
nodes = (
(340,308,l),
(562,650,l),
(435,650,l),
(266,389,l)
);
},
{
closed = 1;
nodes = (
(272,389,l),
(21,1,l),
(147,1,l),
(346,308,l)
);
}
);
width = 599;
},
{
anchors = (
{
name = bottom;
pos = (285,0);
},
{
name = top;
pos = (285,650);
}
);
layerId = m004;
shapes = (
{
closed = 1;
nodes = (
(75,650,l),
(34,650,l),
(495,1,l),
(535,1,l)
);
},
{
closed = 1;
nodes = (
(301,316,l),
(535,650,l),
(494,650,l),
(280,344,l)
);
},
{
closed = 1;
nodes = (
(274,344,l),
(34,1,l),
(74,1,l),
(295,316,l)
);
}
);
width = 569;
}
);
metricRight = "=|";
unicode = 88;
},
{
glyphname = Y;
lastChange = "2025-08-05 15:19:57 +0000";
layers = (
{
anchors = (
{
name = bottom;
pos = (291,0);
},
{
name = top;
pos = (291,650);
},
{
name = topleft;
pos = (20,650);
}
);
layerId = m002;
shapes = (
{
closed = 1;
nodes = (
(235,259,l),
(235,0,l),
(347,0,l),
(347,259,l),
(562,650,l),
(446,650,l),
(273,327,l),
(309,327,l),
(136,650,l),
(20,650,l)
);
}
);
width = 582;
},
{
anchors = (
{
name = bottom;
pos = (240,0);
},
{
name = top;
pos = (240,650);
},
{
name = topleft;
pos = (20,650);
}
);
layerId = m004;
shapes = (
{
closed = 1;
nodes = (
(222,259,l),
(222,0,l),
(258,0,l),
(258,259,l),
(474,650,l),
(435,650,l),
(227,268,l),
(253,268,l),
(44,650,l),
(5,650,l)
);
}
);
width = 479;
}
);
metricRight = "=|";
unicode = 89;
},
{
glyphname = Z;
lastChange = "2025-08-05 15:19:57 +0000";
layers = (
{
anchors = (
{
name = bottom;
pos = (292,0);
},
{
name = center;
pos = (292,325);
},
{
name = top;
pos = (292,650);
}
);
layerId = m002;
shapes = (
{
closed = 1;
nodes = (
(70,98,l),
(200,98,l),
(514,552,l),
(385,552,l)
);
},
{
closed = 1;
nodes = (
(70,98,l),
(70,0,l),
(514,0,l),
(514,98,l)
);
},
{
closed = 1;
nodes = (
(70,650,l),
(70,552,l),
(514,552,l),
(514,650,l)
);
}
);
width = 584;
},
{
anchors = (
{
name = bottom;
pos = (301,0);
},
{
name = center;
pos = (301,325);
},
{
name = top;
pos = (301,650);
}
);
layerId = m004;
shapes = (
{
closed = 1;
nodes = (
(84,32,l),
(128,32,l),
(518,618,l),
(474,618,l)
);
},
{
closed = 1;
nodes = (
(84,32,l),
(84,0,l),
(518,0,l),
(518,32,l)
);
},
{
closed = 1;
nodes = (
(84,650,l),
(84,618,l),
(518,618,l),
(518,650,l)
);
}
);
width = 602;
}
);
metricLeft = H;
metricRight = "=|";
unicode = 90;
},
{
glyphname = a;
lastChange = "2025-08-05 15:19:57 +0000";
layers = (
{
anchors = (
{
name = bottom;
pos = (233,0);
},
{
name = ogonek;
pos = (419,10);
},
{
name = top;
pos = (233,450);
}
);
layerId = m002;
shapes = (
{
closed = 1;
nodes = (
(252,-13,o),
(298,11,o),
(315,52,c),
(306,155,l),
(292,85,o),
(243,64,o),
(201,64,cs),
(152,64,o),
(111,84,o),
(111,134,cs),
(111,180,o),
(142,202,o),
(210,202,c),
(306,202,l),
(306,280,l),
(187,280,ls),
(50,280,o),
(19,197,o),
(19,124,cs),
(19,64,o),
(71,-13,o),
(181,-13,cs)
);
},
{
closed = 1;
nodes = (
(141,312,l),
(142,364,o),
(180,376,o),
(224,376,cs),
(251,376,o),
(306,364,o),
(306,308,cs),
(305,56,l),
(315,52,l),
(318,52,l),
(332,0,l),
(411,0,l),
(412,310,ls),
(412,424,o),
(299,463,o),
(224,463,cs),
(153,463,o),
(45,424,o),
(45,312,c)
);
}
);
width = 466;
},
{
anchors = (
{
name = bottom;
pos = (223,0);
},
{
name = ogonek;
pos = (401,10);
},
{
name = top;
pos = (203,450);
}
);
layerId = m004;
shapes = (
{
closed = 1;
nodes = (
(252,-17,o),
(328,11,o),
(345,52,c),
(345,101,l),
(316,12,o),
(224,13,o),
(191,13,cs),
(129,13,o),
(75,49,o),
(75,120,cs),
(75,179,o),
(116,218,o),
(203,218,c),
(336,218,l),
(336,248,l),
(207,248,ls),
(82,248,o),
(39,190,o),
(39,110,cs),
(39,42,o),
(91,-17,o),
(201,-17,cs)
);
},
{
closed = 1;
nodes = (
(102,358,l),
(102,415,o),
(165,435,o),
(210,435,cs),
(261,435,o),
(336,415,o),
(336,305,cs),
(336,57,l),
(336,50,l),
(336,50,l),
(336,0,l),
(370,0,l),
(371,314,ls),
(371,428,o),
(274,467,o),
(209,467,cs),
(140,467,o),
(66,428,o),
(66,358,c)
);
}
);
width = 445;
}
);
metricLeft = "=o-20";
metricRight = "=n-10";
unicode = 97;
},
{
glyphname = ae;
lastChange = "2025-08-05 15:19:57 +0000";
layers = (
{
anchors = (
{
name = bottom;
pos = (300,0);
},
{
name = top;
pos = (300,450);
}
);
background = {
shapes = (
{
closed = 1;
nodes = (
(207,248,ls),
(82,248,o),
(39,190,o),
(39,110,cs),
(39,42,o),
(91,-17,o),
(201,-17,cs),
(252,-17,o),
(328,11,o),
(345,52,c),
(345,101,l),
(316,12,o),
(224,13,o),
(191,13,cs),
(129,13,o),
(75,49,o),
(75,120,cs),
(75,179,o),
(116,218,o),
(203,218,c),
(336,218,l),
(336,248,l)
);
}
);
};
layerId = m004;
shapes = (
{
closed = 1;
nodes = (
(75,418,l),
(118,431,o),
(161,440,o),
(213,435,cs),
(245,432,o),
(336,415,o),
(336,305,cs),
(336,193,l),
(336,189,l),
(370,190,l),
(371,314,l),
(372,428,o),
(258,467,o),
(193,467,cs),
(161,467,o),
(104,459,o),
(75,450,c)
);
},
{
closed = 1;
nodes = (
(207,248,ls),
(82,248,o),
(39,190,o),
(39,110,cs),
(39,42,o),
(91,-17,o),
(201,-17,cs),
(293,-17,o),
(346,31,o),
(368,85,c),
(353,119,l),
(329,46,o),
(264,13,o),
(191,13,cs),
(129,13,o),
(75,49,o),
(75,120,cs),
(75,179,o),
(116,218,o),
(203,218,c),
(336,218,l),
(336,248,l)
);
},
{
closed = 1;
nodes = (
(577,-16,o),
(651,-13,o),
(695,0,c),
(695,30,l),
(628,15,o),
(571,14,o),
(554,14,cs),
(455,14,o),
(370,62,o),
(370,213,c),
(747,211,l),
(747,216,o),
(747,220,o),
(747,225,cs),
(747,424,o),
(654,466,o),
(543,466,cs),
(432,466,o),
(334,415,o),
(334,225,cs),
(334,36,o),
(432,-16,o),
(554,-16,c)
);
},
{
closed = 1;
nodes = (
(370,395,o),
(455,436,o),
(544,436,cs),
(656,436,o),
(694,397,o),
(711,242,c),
(370,242,l)
);
}
);
width = 806;
},
{
anchors = (
{
name = bottom;
pos = (379,0);
},
{
name = top;
pos = (379,450);
}
);
background = {
shapes = (
{
closed = 1;
nodes = (
(187,280,ls),
(50,280,o),
(19,197,o),
(19,124,cs),
(19,64,o),
(71,-13,o),
(181,-13,cs),
(252,-13,o),
(298,11,o),
(315,52,c),
(306,155,l),
(292,85,o),
(243,64,o),
(201,64,cs),
(152,64,o),
(111,84,o),
(111,134,cs),
(111,180,o),
(142,202,o),
(210,202,c),
(306,202,l),
(306,280,l)
);
}
);
};
layerId = m002;
shapes = (
{
closed = 1;
nodes = (
(81,363,l),
(123,369,o),
(166,376,o),
(208,376,cs),
(229,376,o),
(305,369,o),
(306,308,cs),
(308,155,l),
(366,114,l),
(409,204,l),
(412,310,l),
(412,424,o),
(299,463,o),
(214,463,cs),
(170,463,o),
(125,456,o),
(81,450,c)
);
},
{
closed = 1;
nodes = (
(187,280,ls),
(50,280,o),
(19,197,o),
(19,124,cs),
(19,64,o),
(71,-13,o),
(181,-13,cs),
(353,-13,o),
(366,107,o),
(366,114,c),
(308,155,l),
(294,85,o),
(243,64,o),
(201,64,cs),
(152,64,o),
(111,84,o),
(111,134,cs),
(111,180,o),
(142,202,o),
(210,202,c),
(316,202,l),
(316,280,l)
);
},
{
closed = 1;
nodes = (
(567,-12,o),
(630,-6,o),
(665,4,c),
(665,92,l),
(617,79,o),
(561,76,o),
(525,76,cs),
(470,76,o),
(426,100,o),
(414,187,c),
(717,186,l),
(718,199,o),
(719,211,o),
(719,225,cs),
(719,419,o),
(636,462,o),
(525,462,cs),
(414,462,o),
(306,411,o),
(306,225,cs),
(306,40,o),
(424,-12,o),
(525,-12,cs)
);
},
{
closed = 1;
nodes = (
(415,358,o),
(461,374,o),
(519,374,cs),
(578,374,o),
(613,358,o),
(613,267,c),
(415,268,l)
);
}
);
width = 758;
}
);
metricLeft = "=a";
unicode = 230;
},
{
glyphname = b;
lastChange = "2025-08-05 15:19:57 +0000";
layers = (
{
anchors = (
{
name = bottom;
pos = (264,0);
},
{
name = center;
pos = (132,544);
},
{
name = top;
pos = (264,450);
}
);
layerId = m002;
shapes = (
{
closed = 1;
nodes = (
(398,-16,o),
(488,36,o),
(488,223,cs),
(488,420,o),
(388,463,o),
(281,463,cs),
(202,463,o),
(110,423,o),
(110,263,c),
(115,213,l),
(115,46,o),
(182,-16,o),
(281,-16,cs)
);
},
{
closed = 1;
nodes = (
(134,0,l),
(147,43,l),
(170,43,l),
(170,150,l),
(116,248,l),
(170,299,l),
(170,680,l),
(64,680,l),
(64,530,o),
(64,150,o),
(64,0,c)
);
},
{
closed = 1;
nodes = (
(214,70,o),
(167,116,o),
(166,223,c),
(167,340,o),
(214,377,o),
(272,377,cs),
(326,377,o),
(383,359,o),
(383,223,cs),
(383,96,o),
(336,70,o),
(272,70,cs)
);
}
);
width = 527;
},
{
anchors = (
{
name = bottom;
pos = (247,0);
},
{
name = center;
pos = (123,560);
},
{
name = top;
pos = (247,450);
}
);
layerId = m004;
shapes = (
{
closed = 1;
nodes = (
(345,-16,o),
(434,37,o),
(434,225,cs),
(434,418,o),
(344,463,o),
(251,463,cs),
(187,463,o),
(86,423,o),
(86,263,c),
(85,213,l),
(85,46,o),
(168,-16,o),
(247,-16,cs)
);
},
{
closed = 1;
nodes = (
(104,0,l),
(117,0,l),
(118,0,l),
(118,120,l),
(102,248,l),
(118,329,l),
(118,680,l),
(84,680,l),
(84,530,o),
(84,150,o),
(84,0,c)
);
},
{
closed = 1;
nodes = (
(176,14,o),
(111,73,o),
(111,223,c),
(114,387,o),
(188,433,o),
(245,433,cs),
(308,433,o),
(398,411,o),
(398,224,cs),
(398,49,o),
(318,14,o),
(243,14,cs)
);
}
);
width = 493;
}
);
metricLeft = n;
metricRight = o;
unicode = 98;
},
{
glyphname = c;
lastChange = "2025-08-05 15:19:57 +0000";
layers = (
{
anchors = (
{
name = bottom;
pos = (221,0);
},
{
name = top;
pos = (221,450);
}
);
layerId = m002;
shapes = (
{
closed = 1;
nodes = (
(330,-12,o),
(438,27,o),
(444,139,c),
(348,139,l),
(341,87,o),
(303,76,o),
(248,77,cs),
(185,78,o),
(145,119,o),
(145,225,cs),
(145,331,o),
(185,372,o),
(248,373,cs),
(302,374,o),
(340,363,o),
(347,311,c),
(443,311,l),
(437,423,o),
(329,462,o),
(258,462,cs),
(137,460,o),
(39,394,o),
(39,225,cs),
(39,56,o),
(137,-10,o),
(259,-12,cs)
);
}
);
width = 441;
},
{
anchors = (
{
name = bottom;
pos = (231,0);
},
{
name = top;
pos = (231,450);
}
);
guides = (
{
pos = (388,332);
},
{
pos = (388,118);
}
);
layerId = m004;
shapes = (
{
closed = 1;
nodes = (
(335,-12,o),
(410,27,o),
(425,118,c),
(388,118,l),
(373,38,o),
(306,18,o),
(258,18,cs),
(179,18,o),
(95,76,o),
(95,225,cs),
(95,374,o),
(179,432,o),
(258,432,cs),
(306,432,o),
(373,412,o),
(388,332,c),
(425,332,l),
(410,423,o),
(335,462,o),
(258,462,cs),
(157,462,o),
(59,394,o),
(59,225,cs),
(59,56,o),
(157,-12,o),
(258,-12,cs)
);
}
);
width = 461;
}
);
metricLeft = "=o";
unicode = 99;
},
{
glyphname = d;
lastChange = "2025-08-05 15:19:57 +0000";
layers = (
{
anchors = (
{
name = bottom;
pos = (264,0);
},
{
name = center;
pos = (395,544);
},
{
name = top;
pos = (264,450);
},
{
name = topright;
pos = (507,680);
}
);
layerId = m002;
shapes = (
{
closed = 1;
nodes = (
(463,680,l),
(357,680,l),
(357,299,l),
(411,248,l),
(357,150,l),
(357,43,l),
(380,43,l),
(393,0,l),
(463,0,l)
);
},
{
closed = 1;
nodes = (
(345,-16,o),
(412,46,o),
(412,213,c),
(417,263,l),
(417,423,o),
(325,463,o),
(246,463,cs),
(139,463,o),
(39,420,o),
(39,223,cs),
(39,36,o),
(139,-16,o),
(246,-16,cs)
);
},
{
closed = 1;
nodes = (
(201,70,o),
(144,96,o),
(144,223,cs),
(144,359,o),
(201,377,o),
(255,377,cs),
(313,377,o),
(360,340,o),
(361,223,c),
(360,116,o),
(313,70,o),
(255,70,cs)
);
}
);
width = 527;
},
{
anchors = (
{
name = bottom;
pos = (247,0);
},
{
name = center;
pos = (370,560);
},
{
name = top;
pos = (247,450);
},
{
name = topright;
pos = (473,700);
}
);
layerId = m004;
shapes = (
{
closed = 1;
nodes = (
(409,680,l),
(375,680,l),
(375,329,l),
(391,248,l),
(375,120,l),
(375,0,l),
(376,0,l),
(389,0,l),
(409,0,l)
);
},
{
closed = 1;
nodes = (
(325,-16,o),
(408,46,o),
(408,213,c),
(407,263,l),
(407,423,o),
(313,463,o),
(242,463,cs),
(149,463,o),
(59,418,o),
(59,225,cs),
(59,37,o),
(148,-16,o),
(246,-16,cs)
);
},
{
closed = 1;
nodes = (
(175,14,o),
(95,49,o),
(95,224,cs),
(95,411,o),
(185,433,o),
(247,433,cs),
(305,433,o),
(379,387,o),
(382,223,c),
(382,73,o),
(317,14,o),
(250,14,cs)
);
}
);
width = 493;
}
);
metricLeft = o;
metricRight = n;
unicode = 100;
},
{
glyphname = e;
lastChange = "2025-08-05 15:20:14 +0000";
layers = (
{
layerId = m004;
shapes = (
{
closed = 1;
nodes = (
(336,-12,o),
(410,27,o),
(425,118,c),
(388,118,l),
(373,38,o),
(313,18,o),
(259,18,cs),
(180,18,o),
(95,63,o),
(95,213,c),
(432,211,l),
(432,216,o),
(432,220,o),
(432,225,cs),
(432,424,o),
(339,466,o),
(248,466,cs),
(157,466,o),
(59,415,o),
(59,225,cs),
(59,37,o),
(157,-12,o),
(258,-12,cs)
);
},
{
closed = 1;
nodes = (
(95,395,o),
(180,436,o),
(249,436,cs),
(341,436,o),
(396,392,o),
(396,242,c),
(95,242,l)
);
}
);
width = 491;
},
{
background = {
shapes = (
{
closed = 1;
nodes = (
(330,-12,o),
(438,22,o),
(444,134,c),
(348,134,l),
(341,85,o),
(308,77,o),
(257,77,cs),
(183,77,o),
(151,103,o),
(147,187,c),
(450,186,l),
(451,199,o),
(452,211,o),
(452,225,cs),
(452,419,o),
(365,462,o),
(254,462,cs),
(143,462,o),
(39,411,o),
(39,225,cs),
(39,40,o),
(157,-12,o),
(259,-12,cs)
);
},
{
closed = 1;
nodes = (
(148,358,o),
(194,374,o),
(252,374,cs),
(311,374,o),
(346,358,o),
(346,267,c),
(148,268,l)
);
}
);
};
layerId = m002;
shapes = (
{
closed = 1;
nodes = (
(330,-12,o),
(438,22,o),
(444,134,c),
(348,134,l),
(341,85,o),
(308,77,o),
(257,77,cs),
(183,77,o),
(151,103,o),
(147,187,c),
(450,186,l),
(451,199,o),
(452,211,o),
(452,225,cs),
(452,419,o),
(365,462,o),
(254,462,cs),
(143,462,o),
(39,411,o),
(39,225,cs),
(39,40,o),
(157,-12,o),
(259,-12,cs)
);
},
{
closed = 1;
nodes = (
(148,358,o),
(194,374,o),
(252,374,cs),
(311,374,o),
(346,358,o),
(346,267,c),
(148,268,l)
);
}
);
width = 491;
}
);
metricLeft = "=o";
metricRight = "=o";
unicode = 101;
},
{
glyphname = f;
lastChange = "2025-08-05 15:19:57 +0000";
layers = (
{
anchors = (
{
name = bottom;
pos = (164,0);
},
{
name = top;
pos = (164,680);
}
);
layerId = m002;
shapes = (
{
closed = 1;
nodes = (
(207,0,l),
(207,551,ls),
(207,577,o),
(217,592,o),
(250,592,cs),
(323,592,l),
(323,680,l),
(220,680,ls),
(147,680,o),
(101,648,o),
(101,561,cs),
(101,0,l)
);
},
{
closed = 1;
nodes = (
(323,364,l),
(323,450,l),
(15,450,l),
(15,364,l)
);
}
);
width = 328;
},
{
anchors = (
{
name = bottom;
pos = (164,0);
},
{
name = top;
pos = (164,700);
}
);
layerId = m004;
shapes = (
{
closed = 1;
nodes = (
(134,-10,l),
(134,587,ls),
(134,644,o),
(153,650,o),
(183,650,cs),
(239,650,l),
(239,680,l),
(183,680,ls),
(126,680,o),
(100,660,o),
(100,597,cs),
(100,-10,l)
);
},
{
closed = 1;
nodes = (
(239,420,l),
(239,450,l),
(35,450,l),
(35,420,l)
);
}
);
width = 328;
}
);
unicode = 102;
},
{
glyphname = g;
lastChange = "2025-08-05 15:19:57 +0000";
layers = (
{
anchors = (
{
name = bottom;
pos = (241,-200);
},
{
name = top;
pos = (241,450);
}
);
background = {
shapes = (
{
closed = 1;
nodes = (
(346,494,o),
(300,462,o),
(300,375,cs),
(300,357,l),
(377,357,l),
(377,367,ls),
(377,401,o),
(394,421,o),
(444,421,cs),
(460,421,l),
(460,494,l),
(419,494,ls)
);
}
);
};
layerId = m002;
shapes = (
{
closed = 1;
nodes = (
(327,141,o),
(410,177,o),
(410,303,cs),
(410,429,o),
(327,466,o),
(234,466,cs),
(142,466,o),
(59,421,o),
(59,303,cs),
(59,177,o),
(142,141,o),
(234,141,cs)
);
},
{
closed = 1;
nodes = (
(183,221,o),
(151,243,o),
(151,303,cs),
(151,352,o),
(183,386,o),
(234,386,cs),
(286,386,o),
(318,353,o),
(318,304,cs),
(318,244,o),
(286,221,o),
(234,221,cs)
);
},
{
closed = 1;
nodes = (
(299,10,l),
(299,81,l),
(205,81,ls),
(141,81,o),
(92,111,o),
(144,160,cs),
(176,190,l),
(123,242,l),
(70,190,ls),
(20,137,o),
(15,10,o),
(157,10,cs)
);
},
{
closed = 1;
nodes = (
(264,-210,ls),
(395,-210,o),
(440,-139,o),
(440,-64,cs),
(440,11,o),
(395,82,o),
(264,82,cs),
(180,82,ls),
(59,82,o),
(4,11,o),
(4,-64,cs),
(4,-139,o),
(49,-210,o),
(180,-210,cs)
);
},
{
closed = 1;
nodes = (
(125,-133,o),
(91,-115,o),
(91,-64,cs),
(91,-13,o),
(125,5,o),
(173,5,cs),
(271,5,ls),
(319,5,o),
(353,-23,o),
(353,-64,cs),
(353,-105,o),
(319,-133,o),
(271,-133,cs),
(173,-133,ls)
);
},
{
closed = 1;
nodes = (
(377,401,o),
(394,421,o),
(444,421,c),
(460,421,l),
(460,494,l),
(419,494,l),
(346,494,o),
(300,462,o),
(300,357,c),
(377,357,l)
);
}
);
width = 482;
},
{
anchors = (
{
name = bottom;
pos = (239,-200);
},
{
name = top;
pos = (239,450);
}
);
background = {
shapes = (
{
closed = 1;
nodes = (
(352,494,o),
(333,466,o),
(333,422,cs),
(333,404,l),
(369,404,l),
(369,420,l),
(369,454,o),
(368,464,o),
(408,464,c),
(433,464,l),
(433,494,l),
(392,494,ls)
);
}
);
};
layerId = m004;
shapes = (
{
closed = 1;
nodes = (
(333,141,o),
(416,187,o),
(416,303,cs),
(416,410,o),
(333,466,o),
(240,466,cs),
(148,466,o),
(65,411,o),
(65,303,cs),
(65,187,o),
(148,141,o),
(240,141,cs)
);
},
{
closed = 1;
nodes = (
(146,171,o),
(101,219,o),
(101,303,cs),
(101,376,o),
(146,436,o),
(240,436,cs),
(334,436,o),
(380,376,o),
(380,303,cs),
(380,219,o),
(334,171,o),
(240,171,cs)
);
},
{
closed = 1;
nodes = (
(256,0,l),
(256,30,l),
(181,30,ls),
(89,30,o),
(54,95,o),
(101,150,cs),
(141,197,l),
(115,221,l),
(63,161,ls),
(23,114,o),
(26,0,o),
(174,0,cs)
);
},
{
closed = 1;
nodes = (
(267,-200,ls),
(370,-200,o),
(406,-144,o),
(406,-85,cs),
(406,-26,o),
(370,30,o),
(267,30,cs),
(149,30,ls),
(54,30,o),
(10,-26,o),
(10,-85,cs),
(10,-144,o),
(46,-200,o),
(149,-200,cs)
);
},
{
closed = 1;
nodes = (
(91,-170,o),
(46,-145,o),
(46,-84,cs),
(46,-21,o),
(88,0,o),
(146,0,cs),
(270,0,ls),
(328,0,o),
(370,-35,o),
(370,-84,cs),
(370,-145,o),
(338,-170,o),
(270,-170,cs),
(146,-170,ls)
);
},
{
closed = 1;
nodes = (
(369,454,o),
(367,464,o),
(405,464,c),
(433,464,l),
(433,494,l),
(392,494,l),
(352,494,o),
(333,474,o),
(333,409,c),
(369,409,l)
);
}
);
width = 478;
}
);
unicode = 103;
},
{
glyphname = h;
lastChange = "2025-08-05 15:19:57 +0000";
layers = (
{
anchors = (
{
name = bottom;
pos = (265,0);
},
{
name = center;
pos = (133,544);
},
{
name = top;
pos = (265,680);
}
);
background = {
shapes = (
{
closed = 1;
nodes = (
(356,0,l),
(462,0,l),
(462,306,ls),
(462,432,o),
(402,466,o),
(287,466,cs),
(157,466,o),
(101,341,o),
(94,211,c),
(170,231,l),
(171,334,o),
(186,378,o),
(270,378,cs),
(338,378,o),
(356,362,o),
(356,284,cs)
);
}
);
};
layerId = m002;
shapes = (
{
closed = 1;
nodes = (
(170,0,l),
(170,680,l),
(64,680,l),
(64,0,l)
);
},
{
closed = 1;
nodes = (
(170,213,l),
(171,316,o),
(166,376,o),
(274,376,cs),
(348,376,o),
(360,360,o),
(360,288,cs),
(360,0,l),
(466,0,l),
(466,308,ls),
(466,428,o),
(412,462,o),
(301,462,cs),
(128,462,o),
(106,333,o),
(99,213,c)
);
}
);
width = 530;
},
{
anchors = (
{
name = bottom;
pos = (255,0);
},
{
name = center;
pos = (127,560);
},
{
name = top;
pos = (255,700);
}
);
layerId = m004;
shapes = (
{
closed = 1;
nodes = (
(118,0,l),
(118,680,l),
(84,680,l),
(84,0,l)
);
},
{
closed = 1;
nodes = (
(118,254,l),
(118,365,o),
(148,437,o),
(259,437,cs),
(355,437,o),
(391,402,o),
(391,294,cs),
(391,0,l),
(425,0,l),
(425,286,ls),
(425,412,o),
(378,466,o),
(263,466,cs),
(140,466,o),
(84,387,o),
(84,254,c)
);
}
);
width = 509;
}
);
metricLeft = n;
metricRight = n;
unicode = 104;
},
{
glyphname = i;
lastChange = "2025-08-05 15:19:57 +0000";
layers = (
{
anchors = (
{
name = bottom;
pos = (139,0);
}
);
layerId = m002;
shapes = (
{
closed = 1;
nodes = (
(156,536,o),
(168,550,o),
(168,594,cs),
(168,637,o),
(156,650,o),
(111,650,cs),
(66,650,o),
(54,637,o),
(54,594,cs),
(54,550,o),
(66,536,o),
(111,536,cs)
);
},
{
closed = 1;
nodes = (
(262,0,l),
(262,87,l),
(207,87,ls),
(174,87,o),
(165,102,o),
(165,128,cs),
(165,450,l),
(59,450,l),
(58,118,ls),
(58,19,o),
(98,0,o),
(177,0,cs)
);
}
);
width = 277;
},
{
anchors = (
{
name = bottom;
pos = (108,0);
}
);
layerId = m004;
shapes = (
{
closed = 1;
nodes = (
(118,569,o),
(124,575,o),
(124,594,cs),
(124,613,o),
(118,619,o),
(99,619,cs),
(80,619,o),
(74,613,o),
(74,594,cs),
(74,575,o),
(80,569,o),
(99,569,cs)
);
},
{
closed = 1;
nodes = (
(181,0,l),
(181,30,l),
(166,30,ls),
(136,30,o),
(117,36,o),
(117,93,cs),
(117,450,l),
(83,450,l),
(83,83,ls),
(83,20,o),
(109,0,o),
(166,0,cs)
);
}
);
width = 216;
}
);
metricLeft = "=n-10";
unicode = 105;
},
{
glyphname = idotless;
lastChange = "2025-08-05 15:19:57 +0000";
layers = (
{
anchors = (
{
name = bottom;
pos = (104,0);
},
{
name = ogonek;
pos = (172,0);
},
{
name = top;
pos = (104,450);
}
);
layerId = m004;
shapes = (
{
closed = 1;
nodes = (
(172,-10,l),
(172,20,l),
(157,20,ls),
(127,20,o),
(108,26,o),
(108,83,cs),
(108,450,l),
(74,450,l),
(74,73,ls),
(74,10,o),
(100,-10,o),
(157,-10,cs)
);
}
);
width = 207;
},
{
anchors = (
{
name = bottom;
pos = (137,0);
},
{
name = ogonek;
pos = (258,0);
},
{
name = top;
pos = (137,450);
}
);
layerId = m002;
shapes = (
{
closed = 1;
nodes = (
(258,0,l),
(258,87,l),
(203,87,ls),
(170,87,o),
(161,102,o),
(161,128,cs),
(161,450,l),
(55,450,l),
(54,118,ls),
(54,19,o),
(94,0,o),
(173,0,cs)
);
}
);
width = 273;
}
);
metricLeft = "=n-10";
metricRight = "=i";
unicode = 305;
},
{
glyphname = j;
lastChange = "2025-08-05 15:19:57 +0000";
layers = (
{
layerId = m002;
shapes = (
{
closed = 1;
nodes = (
(124,-200,o),
(170,-168,o),
(170,-81,cs),
(170,450,l),
(64,450,l),
(64,-71,ls),
(64,-97,o),
(54,-112,o),
(21,-112,cs),
(-42,-112,l),
(-42,-200,l),
(51,-200,ls)
);
},
{
closed = 1;
nodes = (
(161,536,o),
(173,550,o),
(173,594,cs),
(173,637,o),
(161,650,o),
(116,650,cs),
(71,650,o),
(59,637,o),
(59,594,cs),
(59,550,o),
(71,536,o),
(116,536,cs)
);
}
);
width = 237;
},
{
layerId = m004;
shapes = (
{
closed = 1;
nodes = (
(91,-258,o),
(117,-238,o),
(117,-175,cs),
(117,452,l),
(83,452,l),
(83,-165,ls),
(83,-222,o),
(64,-228,o),
(34,-228,cs),
(-22,-228,l),
(-22,-258,l),
(34,-258,ls)
);
},
{
closed = 1;
nodes = (
(118,569,o),
(124,575,o),
(124,594,cs),
(124,613,o),
(118,619,o),
(99,619,cs),
(80,619,o),
(74,613,o),
(74,594,cs),
(74,575,o),
(80,569,o),
(99,569,cs)
);
}
);
width = 208;
}
);
metricLeft = "=n-106";
metricRight = "=n";
unicode = 106;
},
{
glyphname = jdotless;
lastChange = "2025-08-05 15:19:57 +0000";
layers = (
{
anchors = (
{
name = bottom;
pos = (101,-200);
},
{
name = top;
pos = (101,450);
}
);
layerId = m004;
shapes = (
{
closed = 1;
nodes = (
(91,-258,o),
(117,-238,o),
(117,-175,cs),
(117,452,l),
(83,452,l),
(83,-165,ls),
(83,-222,o),
(64,-228,o),
(34,-228,cs),
(-22,-228,l),
(-22,-258,l),
(34,-258,ls)
);
}
);
width = 201;
},
{
anchors = (
{
name = bottom;
pos = (117,-200);
},
{
name = top;
pos = (117,450);
}
);
layerId = m002;
shapes = (
{
closed = 1;
nodes = (
(124,-200,o),
(170,-168,o),
(170,-81,cs),
(170,450,l),
(64,450,l),
(64,-71,ls),
(64,-97,o),
(54,-112,o),
(21,-112,cs),
(-42,-112,l),
(-42,-200,l),
(51,-200,ls)
);
}
);
width = 234;
}
);
metricLeft = "=j";
metricRight = "=j";
unicode = 567;
},
{
glyphname = k;
lastChange = "2025-08-05 15:19:57 +0000";
layers = (
{
anchors = (
{
name = bottom;
pos = (240,0);
},
{
name = top;
pos = (240,680);
}
);
layerId = m002;
shapes = (
{
closed = 1;
nodes = (
(64,0,l),
(170,0,l),
(170,680,l),
(64,680,l)
);
},
{
closed = 1;
nodes = (
(270,289,l),
(152,289,l),
(349,0,l),
(469,0,l)
);
},
{
closed = 1;
nodes = (
(92,167,l),
(169,162,l),
(444,450,l),
(310,450,l),
(92,217,l)
);
}
);
width = 479;
},
{
anchors = (
{
name = bottom;
pos = (250,0);
},
{
name = top;
pos = (250,700);
}
);
layerId = m004;
shapes = (
{
closed = 1;
nodes = (
(84,0,l),
(118,0,l),
(118,700,l),
(84,700,l)
);
},
{
closed = 1;
nodes = (
(213,289,l),
(172,289,l),
(369,0,l),
(412,0,l)
);
},
{
closed = 1;
nodes = (
(92,187,l),
(106,187,l),
(374,450,l),
(330,450,l),
(92,217,l)
);
}
);
width = 499;
}
);
metricLeft = n;
unicode = 107;
},
{
glyphname = l;
lastChange = "2025-08-05 15:19:57 +0000";
layers = (
{
anchors = (
{
name = bottom;
pos = (141,0);
},
{
name = center;
pos = (141,225);
},
{
name = top;
pos = (141,680);
},
{
name = topright;
pos = (262,680);
}
);
layerId = m002;
shapes = (
{
closed = 1;
nodes = (
(267,0,l),
(267,88,l),
(213,88,ls),
(180,88,o),
(170,103,o),
(170,129,cs),
(170,680,l),
(64,680,l),
(64,119,ls),
(64,20,o),
(104,0,o),
(183,0,cs)
);
}
);
width = 282;
},
{
anchors = (
{
name = bottom;
pos = (109,0);
},
{
name = center;
pos = (109,225);
},
{
name = top;
pos = (109,680);
},
{
name = topright;
pos = (197,700);
}
);
background = {
shapes = (
{
closed = 1;
nodes = (
(182,-10,l),
(182,20,l),
(197,20,ls),
(137,20,o),
(118,26,o),
(118,83,cs),
(118,700,l),
(84,700,l),
(84,73,ls),
(84,10,o),
(110,-10,o),
(167,-10,cs)
);
}
);
};
layerId = m004;
shapes = (
{
closed = 1;
nodes = (
(182,-10,l),
(182,20,l),
(167,20,ls),
(137,20,o),
(118,26,o),
(118,83,cs),
(118,680,l),
(84,680,l),
(84,73,ls),
(84,10,o),
(110,-10,o),
(167,-10,cs)
);
}
);
width = 217;
}
);
metricLeft = "=n";
unicode = 108;
},
{
glyphname = m;
lastChange = "2025-08-05 15:19:57 +0000";
layers = (
{
anchors = (
{
name = bottom;
pos = (394,0);
},
{
name = top;
pos = (394,450);
}
);
background = {
shapes = (
{
closed = 0;
nodes = (
(135,450,l),
(148,404,l),
(171,404,l)
);
}
);
};
layerId = m002;
shapes = (
{
closed = 1;
nodes = (
(170,0,l),
(170,404,l),
(163,404,l),
(150,450,l),
(64,450,l),
(64,0,l)
);
},
{
closed = 1;
nodes = (
(442,0,l),
(442,302,ls),
(442,428,o),
(382,462,o),
(287,462,cs),
(157,462,o),
(101,337,o),
(94,207,c),
(170,227,l),
(171,330,o),
(186,374,o),
(270,374,cs),
(318,374,o),
(336,358,o),
(336,280,cs),
(336,0,l)
);
},
{
closed = 1;
nodes = (
(724,0,l),
(724,302,ls),
(724,428,o),
(664,462,o),
(559,462,cs),
(429,462,o),
(373,337,o),
(366,207,c),
(442,227,l),
(443,330,o),
(458,374,o),
(542,374,cs),
(600,374,o),
(618,358,o),
(618,280,cs),
(618,0,l)
);
}
);
width = 788;
},
{
anchors = (
{
name = bottom;
pos = (388,0);
},
{
name = top;
pos = (388,450);
}
);
background = {
shapes = (
{
closed = 0;
nodes = (
(135,450,l),
(148,404,l),
(171,404,l)
);
}
);
};
layerId = m004;
shapes = (
{
closed = 1;
nodes = (
(118,0,l),
(118,413,l),
(118,450,l),
(106,450,l),
(84,450,l),
(84,0,l)
);
},
{
closed = 1;
nodes = (
(405,0,l),
(405,266,ls),
(405,392,o),
(368,466,o),
(253,466,cs),
(140,466,o),
(84,397,o),
(84,264,c),
(118,264,l),
(118,375,o),
(148,437,o),
(249,437,cs),
(345,437,o),
(371,382,o),
(371,274,cs),
(371,0,l)
);
},
{
closed = 1;
nodes = (
(692,0,l),
(692,286,ls),
(692,412,o),
(655,466,o),
(540,466,cs),
(427,466,o),
(371,397,o),
(371,264,c),
(405,264,l),
(405,375,o),
(435,437,o),
(536,437,cs),
(632,437,o),
(658,402,o),
(658,294,cs),
(658,0,l)
);
}
);
width = 776;
}
);
metricLeft = "=n";
metricRight = "=n";
unicode = 109;
},
{
glyphname = n;
lastChange = "2025-08-05 15:19:57 +0000";
layers = (
{
anchors = (
{
name = bottom;
pos = (263,0);
},
{
name = top;
pos = (263,450);
}
);
background = {
shapes = (
{
closed = 0;
nodes = (
(462,306,ls),
(462,432,o),
(402,466,o),
(297,466,cs)
);
}
);
};
layerId = m002;
shapes = (
{
closed = 1;
nodes = (
(356,0,l),
(462,0,l),
(462,302,ls),
(462,428,o),
(402,462,o),
(297,462,cs),
(147,462,o),
(101,337,o),
(94,207,c),
(170,227,l),
(171,330,o),
(186,374,o),
(270,374,cs),
(338,374,o),
(356,358,o),
(356,280,cs)
);
},
{
closed = 1;
nodes = (
(170,398,l),
(158,398,l),
(148,450,l),
(64,450,l),
(64,0,l),
(170,0,l)
);
}
);
width = 526;
},
{
anchors = (
{
name = bottom;
pos = (245,0);
},
{
name = top;
pos = (245,450);
}
);
background = {
shapes = (
{
closed = 0;
nodes = (
(282,466,ls),
(142,466,o),
(92,323,o),
(86,213,c)
);
}
);
};
layerId = m004;
shapes = (
{
closed = 1;
nodes = (
(371,0,l),
(405,0,l),
(405,286,ls),
(405,412,o),
(368,466,o),
(253,466,cs),
(150,466,o),
(84,397,o),
(84,264,c),
(118,264,l),
(118,375,o),
(158,437,o),
(249,437,cs),
(345,437,o),
(371,402,o),
(371,294,cs)
);
},
{
closed = 1;
nodes = (
(118,413,l),
(118,422,l),
(118,450,l),
(84,450,l),
(84,0,l),
(118,0,l)
);
}
);
width = 489;
}
);
unicode = 110;
},
{
glyphname = o;
lastChange = "2025-08-05 15:19:57 +0000";
layers = (
{
anchors = (
{
name = bottom;
pos = (262,0);
},
{
name = center;
pos = (262,225);
},
{
name = ogonek;
pos = (472,10);
},
{
name = top;
pos = (262,450);
},
{
name = topright;
pos = (504,450);
}
);
layerId = m002;
shapes = (
{
closed = 1;
nodes = (
(373,-12,o),
(485,36,o),
(485,225,cs),
(485,413,o),
(363,462,o),
(262,462,cs),
(151,462,o),
(39,415,o),
(39,225,cs),
(39,36,o),
(151,-12,o),
(262,-12,cs)
);
},
{
closed = 1;
nodes = (
(199,76,o),
(139,99,o),
(139,225,cs),
(139,350,o),
(199,374,o),
(262,374,cs),
(325,374,o),
(385,350,o),
(385,225,c),
(385,99,o),
(325,76,o),
(262,76,cs)
);
}
);
width = 524;
},
{
anchors = (
{
name = bottom;
pos = (272,0);
},
{
name = center;
pos = (272,225);
},
{
name = ogonek;
pos = (490,10);
},
{
name = top;
pos = (272,450);
},
{
name = topright;
pos = (524,450);
}
);
layerId = m004;
shapes = (
{
closed = 1;
nodes = (
(343,-16,o),
(455,36,o),
(455,225,cs),
(455,413,o),
(343,466,o),
(257,466,cs),
(166,466,o),
(59,415,o),
(59,225,cs),
(59,36,o),
(166,-16,o),
(257,-16,cs)
);
},
{
closed = 1;
nodes = (
(184,16,o),
(95,48,o),
(95,225,cs),
(95,401,o),
(184,434,o),
(257,434,cs),
(325,434,o),
(419,401,o),
(419,225,cs),
(419,48,o),
(325,16,o),
(257,16,cs)
);
}
);
width = 514;
}
);
metricRight = "=|";
unicode = 111;
},
{
glyphname = oslash;
lastChange = "2025-08-05 15:20:14 +0000";
layers = (
{
anchors = (
{
name = top;
pos = (300,450);
}
);
layerId = m004;
shapes = (
{
ref = o;
},
{
closed = 1;
nodes = (
(69,0,l),
(112,0,l),
(465,450,l),
(422,450,l)
);
}
);
width = 524;
},
{
anchors = (
{
name = top;
pos = (262,450);
}
);
layerId = m002;
shapes = (
{
ref = o;
},
{
closed = 1;
nodes = (
(39,0,l),
(128,0,l),
(485,450,l),
(396,450,l)
);
}
);
width = 524;
}
);
metricLeft = "=o";
metricRight = "=o";
unicode = 248;
},
{
glyphname = p;
lastChange = "2025-08-05 15:19:57 +0000";
layers = (
{
anchors = (
{
name = bottom;
pos = (259,0);
},
{
name = top;
pos = (259,450);
}
);
layerId = m002;
shapes = (
{
closed = 1;
nodes = (
(170,-200,l),
(170,151,l),
(116,202,l),
(170,300,l),
(170,407,l),
(157,407,l),
(144,450,l),
(64,450,l),
(64,-200,l)
);
},
{
closed = 1;
nodes = (
(388,-12,o),
(478,30,o),
(478,227,cs),
(478,414,o),
(388,462,o),
(281,462,cs),
(182,462,o),
(115,404,o),
(115,237,c),
(110,187,l),
(110,27,o),
(202,-12,o),
(281,-12,cs)
);
},
{
closed = 1;
nodes = (
(214,74,o),
(167,110,o),
(166,227,c),
(167,334,o),
(214,376,o),
(272,376,cs),
(326,376,o),
(383,354,o),
(383,227,cs),
(383,91,o),
(326,74,o),
(272,74,cs)
);
}
);
width = 517;
},
{
anchors = (
{
name = bottom;
pos = (247,0);
},
{
name = top;
pos = (247,450);
}
);
layerId = m004;
shapes = (
{
closed = 1;
nodes = (
(118,-200,l),
(118,121,l),
(102,202,l),
(118,330,l),
(118,450,l),
(117,450,l),
(104,450,l),
(84,450,l),
(84,-200,l)
);
},
{
closed = 1;
nodes = (
(354,-13,o),
(434,32,o),
(434,225,cs),
(434,413,o),
(355,466,o),
(247,466,cs),
(168,466,o),
(85,404,o),
(85,237,c),
(86,187,l),
(86,27,o),
(187,-13,o),
(251,-13,cs)
);
},
{
closed = 1;
nodes = (
(188,17,o),
(114,63,o),
(111,227,c),
(111,377,o),
(176,436,o),
(243,436,cs),
(328,436,o),
(398,401,o),
(398,226,cs),
(398,39,o),
(318,17,o),
(245,17,cs)
);
}
);
width = 493;
}
);
metricLeft = "=n";
metricRight = o;
unicode = 112;
},
{
glyphname = q;
lastChange = "2025-08-05 15:19:57 +0000";
layers = (
{
anchors = (
{
name = bottom;
pos = (259,0);
},
{
name = top;
pos = (259,450);
}
);
layerId = m002;
shapes = (
{
closed = 1;
nodes = (
(453,-200,l),
(453,450,l),
(373,450,l),
(360,407,l),
(347,407,l),
(347,300,l),
(401,202,l),
(347,151,l),
(347,-200,l)
);
},
{
closed = 1;
nodes = (
(315,-12,o),
(407,27,o),
(407,187,c),
(402,237,l),
(402,404,o),
(335,462,o),
(236,462,cs),
(129,462,o),
(39,414,o),
(39,227,cs),
(39,30,o),
(129,-12,o),
(236,-12,cs)
);
},
{
closed = 1;
nodes = (
(191,74,o),
(134,91,o),
(134,227,cs),
(134,354,o),
(191,376,o),
(245,376,cs),
(303,376,o),
(350,334,o),
(351,227,c),
(350,110,o),
(303,74,o),
(245,74,cs)
);
}
);
width = 517;
},
{
anchors = (
{
name = bottom;
pos = (247,0);
},
{
name = top;
pos = (247,450);
}
);
layerId = m004;
shapes = (
{
closed = 1;
nodes = (
(409,-200,l),
(409,450,l),
(389,450,l),
(376,450,l),
(375,450,l),
(375,330,l),
(391,202,l),
(375,121,l),
(375,-200,l)
);
},
{
closed = 1;
nodes = (
(306,-13,o),
(407,27,o),
(407,187,c),
(408,237,l),
(408,404,o),
(325,466,o),
(246,466,cs),
(138,466,o),
(59,413,o),
(59,225,cs),
(59,32,o),
(139,-13,o),
(242,-13,cs)
);
},
{
closed = 1;
nodes = (
(175,17,o),
(95,39,o),
(95,226,cs),
(95,401,o),
(165,436,o),
(250,436,cs),
(317,436,o),
(382,377,o),
(382,227,c),
(379,63,o),
(305,17,o),
(248,17,cs)
);
}
);
width = 493;
}
);
metricLeft = "=o";
metricRight = "=n";
unicode = 113;
},
{
glyphname = r;
lastChange = "2025-08-05 15:19:57 +0000";
layers = (
{
anchors = (
{
name = bottom;
pos = (174,0);
},
{
name = top;
pos = (174,450);
}
);
layerId = m002;
shapes = (
{
closed = 1;
nodes = (
(342,354,l),
(342,450,l),
(289,450,l),
(167,450,o),
(89,352,o),
(88,189,c),
(170,188,l),
(170,300,o),
(214,354,o),
(289,354,c)
);
},
{
closed = 1;
nodes = (
(170,398,l),
(158,398,l),
(148,450,l),
(64,450,l),
(64,0,l),
(170,0,l)
);
}
);
width = 347;
},
{
anchors = (
{
name = bottom;
pos = (186,0);
},
{
name = top;
pos = (186,450);
}
);
layerId = m004;
shapes = (
{
closed = 1;
nodes = (
(274,420,l),
(274,450,l),
(226,450,l),
(134,450,o),
(86,390,o),
(85,259,c),
(116,259,l),
(116,383,o),
(165,420,o),
(212,420,c)
);
},
{
closed = 1;
nodes = (
(118,413,l),
(118,422,l),
(118,450,l),
(84,450,l),
(84,0,l),
(118,0,l)
);
}
);
width = 331;
}
);
metricLeft = n;
unicode = 114;
},
{
glyphname = s;
lastChange = "2025-08-06 17:32:34 +0000";
layers = (
{
anchors = (
{
name = bottom;
pos = (206,0);
},
{
name = top;
pos = (206,450);
}
);
layerId = m002;
shapes = (
{
closed = 1;
nodes = (
(34,49,o),
(113,-12,o),
(203,-12,cs),
(304,-12,o),
(371,49,o),
(371,132,cs),
(371,218,o),
(283,246,o),
(234,270,cs),
(204,284,o),
(148,296,o),
(148,339,cs),
(148,372,o),
(180,381,o),
(210,381,cs),
(242,381,o),
(265,371,o),
(265,322,c),
(362,322,l),
(362,412,o),
(286,462,o),
(213,462,cs),
(120,462,o),
(50,412,o),
(50,333,cs),
(50,243,o),
(132,216,o),
(190,191,cs),
(234,172,o),
(269,157,o),
(269,125,cs),
(269,92,o),
(254,71,o),
(201,71,cs),
(153,71,o),
(131,92,o),
(131,139,c),
(34,139,l)
);
}
);
width = 412;
},
{
anchors = (
{
name = bottom;
pos = (183,0);
},
{
name = top;
pos = (183,450);
}
);
background = {
shapes = (
{
closed = 0;
nodes = (
(187,-12,ls),
(110,-12,o),
(35,27,o),
(20,118,c),
(57,118,l),
(72,38,o),
(139,18,o),
(187,18,cs)
);
}
);
};
layerId = m004;
shapes = (
{
closed = 1;
nodes = (
(35,27,o),
(110,-12,o),
(187,-12,cs),
(292,-12,o),
(339,24,o),
(339,104,cs),
(339,180,o),
(252,218,o),
(176,256,cs),
(120,284,o),
(70,312,o),
(70,360,cs),
(70,416,o),
(117,432,o),
(175,432,cs),
(231,432,o),
(295,413,o),
(295,336,c),
(327,336,l),
(327,429,o),
(252,462,o),
(175,462,cs),
(92,462,o),
(37,427,o),
(37,348,cs),
(37,286,o),
(96,256,o),
(160,224,cs),
(232,187,o),
(310,159,o),
(308,97,cs),
(306,31,o),
(239,18,o),
(187,18,cs),
(139,18,o),
(72,38,o),
(57,118,c),
(20,118,l)
);
}
);
width = 366;
}
);
unicode = 115;
},
{
glyphname = t;
lastChange = "2025-08-05 15:19:57 +0000";
layers = (
{
anchors = (
{
name = bottom;
pos = (165,0);
},
{
name = center;
pos = (165,225);
},
{
name = top;
pos = (165,559);
},
{
name = topright;
pos = (309,680);
}
);
layerId = m002;
shapes = (
{
closed = 1;
nodes = (
(294,0,l),
(294,87,l),
(239,87,ls),
(206,87,o),
(197,102,o),
(197,128,cs),
(197,559,l),
(91,559,l),
(90,118,ls),
(90,19,o),
(130,0,o),
(209,0,cs)
);
},
{
closed = 1;
nodes = (
(305,363,l),
(305,450,l),
(5,450,l),
(5,362,l)
);
}
);
width = 329;
},
{
anchors = (
{
name = bottom;
pos = (168,0);
},
{
name = center;
pos = (168,225);
},
{
name = top;
pos = (168,549);
},
{
name = topright;
pos = (316,700);
}
);
layerId = m004;
shapes = (
{
closed = 1;
nodes = (
(239,0,l),
(239,30,l),
(183,30,ls),
(153,30,o),
(134,36,o),
(134,93,cs),
(134,549,l),
(100,549,l),
(100,83,ls),
(100,20,o),
(126,0,o),
(183,0,cs)
);
},
{
closed = 1;
nodes = (
(239,420,l),
(239,450,l),
(35,450,l),
(35,420,l)
);
}
);
width = 336;
}
);
unicode = 116;
},
{
glyphname = u;
lastChange = "2025-08-05 15:19:57 +0000";
layers = (
{
anchors = (
{
name = bottom;
pos = (263,0);
},
{
name = ogonek;
pos = (473,10);
},
{
name = top;
pos = (263,450);
},
{
name = topright;
pos = (506,450);
}
);
layerId = m002;
shapes = (
{
closed = 1;
nodes = (
(356,56,l),
(368,56,l),
(384,0,l),
(462,0,l),
(462,450,l),
(356,450,l)
);
},
{
closed = 1;
nodes = (
(64,178,ls),
(64,43,o),
(110,-12,o),
(239,-12,cs),
(365,-12,o),
(422,59,o),
(432,243,c),
(356,223,l),
(355,117,o),
(327,76,o),
(256,76,cs),
(194,76,o),
(170,102,o),
(170,170,cs),
(170,450,l),
(64,450,l)
);
}
);
width = 526;
},
{
anchors = (
{
name = bottom;
pos = (245,0);
},
{
name = ogonek;
pos = (440,10);
},
{
name = top;
pos = (245,450);
},
{
name = topright;
pos = (469,450);
}
);
background = {
shapes = (
{
closed = 1;
nodes = (
(118,450,l),
(84,450,l),
(84,164,ls),
(84,38,o),
(164,-16,o),
(249,-16,cs),
(349,-16,o),
(405,29,o),
(405,166,c),
(371,166,l),
(371,54,o),
(339,13,o),
(264,13,cs),
(194,13,o),
(118,47,o),
(118,156,cs)
);
}
);
};
layerId = m004;
shapes = (
{
closed = 1;
nodes = (
(371,37,l),
(371,0,l),
(383,0,l),
(405,0,l),
(405,450,l),
(371,450,l)
);
},
{
closed = 1;
nodes = (
(84,164,ls),
(84,38,o),
(141,-16,o),
(236,-16,cs),
(329,-16,o),
(405,33,o),
(405,166,c),
(371,166,l),
(371,55,o),
(321,13,o),
(240,13,cs),
(164,13,o),
(118,48,o),
(118,156,cs),
(118,450,l),
(84,450,l)
);
}
);
width = 489;
}
);
metricLeft = "=n";
metricRight = n;
unicode = 117;
},
{
glyphname = v;
lastChange = "2025-08-05 15:19:57 +0000";
layers = (
{
anchors = (
{
name = bottom;
pos = (226,0);
},
{
name = top;
pos = (226,450);
}
);
layerId = m002;
shapes = (
{
closed = 1;
nodes = (
(180,1,l),
(272,1,l),
(447,450,l),
(346,450,l),
(204,70,l),
(248,70,l),
(116,450,l),
(5,450,l)
);
}
);
width = 452;
},
{
anchors = (
{
name = bottom;
pos = (226,0);
},
{
name = top;
pos = (226,450);
}
);
background = {
shapes = (
{
closed = 1;
nodes = (
(223,0,l),
(357,417,l),
(345,417,l),
(479,0,l),
(513,0,l),
(659,450,l),
(626,450,l),
(491,31,l),
(502,30,l),
(369,450,l),
(333,450,l),
(201,33,l),
(211,33,l),
(76,450,l),
(43,450,l),
(189,0,l)
);
}
);
};
layerId = m004;
shapes = (
{
closed = 1;
nodes = (
(189,0,l),
(223,0,l),
(369,450,l),
(333,450,l),
(201,33,l),
(211,33,l),
(77,450,l),
(43,450,l)
);
}
);
width = 452;
}
);
unicode = 118;
},
{
glyphname = w;
lastChange = "2025-08-05 15:19:57 +0000";
layers = (
{
anchors = (
{
name = bottom;
pos = (338,0);
},
{
name = top;
pos = (338,450);
}
);
layerId = m002;
shapes = (
{
closed = 1;
nodes = (
(244,1,l),
(351,350,l),
(324,350,l),
(442,1,l),
(543,1,l),
(671,450,l),
(573,450,l),
(482,102,l),
(498,102,l),
(387,450,l),
(289,450,l),
(187,102,l),
(204,102,l),
(103,450,l),
(5,450,l),
(143,1,l)
);
}
);
width = 676;
},
{
anchors = (
{
name = bottom;
pos = (351,0);
},
{
name = top;
pos = (351,450);
}
);
layerId = m004;
shapes = (
{
closed = 1;
nodes = (
(223,0,l),
(357,417,l),
(345,417,l),
(479,0,l),
(513,0,l),
(659,450,l),
(626,450,l),
(491,31,l),
(502,30,l),
(369,450,l),
(333,450,l),
(201,33,l),
(211,33,l),
(76,450,l),
(43,450,l),
(189,0,l)
);
}
);
width = 702;
}
);
metricRight = "=|";
unicode = 119;
},
{
glyphname = x;
lastChange = "2025-08-05 15:19:57 +0000";
layers = (
{
anchors = (
{
name = bottom;
pos = (244,0);
},
{
name = top;
pos = (244,450);
}
);
layerId = m002;
shapes = (
{
closed = 1;
nodes = (
(354,1,l),
(467,1,l),
(144,450,l),
(31,450,l)
);
},
{
closed = 1;
nodes = (
(284,202,l),
(457,450,l),
(344,450,l),
(225,276,l)
);
},
{
closed = 1;
nodes = (
(219,276,l),
(21,1,l),
(134,1,l),
(278,202,l)
);
}
);
width = 488;
},
{
anchors = (
{
name = bottom;
pos = (202,0);
},
{
name = top;
pos = (202,450);
}
);
layerId = m004;
shapes = (
{
closed = 1;
nodes = (
(344,1,l),
(384,1,l),
(61,450,l),
(21,450,l)
);
},
{
closed = 1;
nodes = (
(58,0,l),
(206,221,l),
(186,248,l),
(20,0,l)
);
},
{
closed = 1;
nodes = (
(209,227,l),
(358,450,l),
(319,450,l),
(192,251,l)
);
}
);
width = 404;
}
);
metricRight = "=|";
unicode = 120;
},
{
glyphname = y;
lastChange = "2025-08-05 15:19:57 +0000";
layers = (
{
anchors = (
{
name = bottom;
pos = (226,0);
},
{
name = top;
pos = (226,450);
}
);
background = {
shapes = (
{
closed = 1;
nodes = (
(164,2,l),
(256,2,l),
(431,451,l),
(333,451,l),
(188,71,l),
(232,71,l),
(87,451,l),
(-11,451,l)
);
}
);
};
layerId = m002;
shapes = (
{
closed = 1;
nodes = (
(185,23,l),
(184,-20,l),
(5,451,l),
(116,451,l),
(247,71,l),
(205,71,l),
(339,451,l),
(446,451,l),
(231,-104,ls),
(209,-160,o),
(169,-199,o),
(98,-199,cs),
(45,-199,o),
(58,-198,o),
(10,-198,c),
(10,-110,l),
(10,-112,o),
(55,-110,o),
(87,-110,cs),
(123,-110,o),
(140,-90,o),
(152,-60,cs)
);
}
);
width = 451;
},
{
anchors = (
{
name = bottom;
pos = (226,0);
},
{
name = top;
pos = (226,450);
}
);
background = {
shapes = (
{
closed = 1;
nodes = (
(189,0,l),
(223,0,l),
(369,450,l),
(333,450,l),
(201,33,l),
(211,33,l),
(77,450,l),
(43,450,l)
);
}
);
};
layerId = m004;
shapes = (
{
closed = 1;
nodes = (
(195,18,l),
(189,0,l),
(43,450,l),
(77,450,l),
(211,33,l),
(201,33,l),
(334,451,l),
(369,450,l),
(188,-105,ls),
(164,-176,o),
(136,-200,o),
(55,-200,cs),
(2,-200,o),
(24,-200,o),
(10,-200,c),
(10,-169,l),
(10,-171,o),
(55,-169,o),
(70,-169,cs),
(115,-169,o),
(143,-138,o),
(151,-113,cs)
);
}
);
width = 451;
}
);
unicode = 121;
},
{
glyphname = z;
lastChange = "2025-08-05 15:19:57 +0000";
layers = (
{
anchors = (
{
name = bottom;
pos = (226,0);
},
{
name = center;
pos = (226,225);
},
{
name = top;
pos = (226,450);
}
);
layerId = m002;
shapes = (
{
closed = 1;
nodes = (
(54,90,l),
(54,0,l),
(398,0,l),
(398,80,l),
(166,80,l),
(398,360,l),
(398,450,l),
(54,450,l),
(54,370,l),
(286,370,l)
);
}
);
width = 452;
},
{
anchors = (
{
name = bottom;
pos = (246,0);
},
{
name = center;
pos = (246,225);
},
{
name = top;
pos = (246,450);
}
);
layerId = m004;
shapes = (
{
closed = 1;
nodes = (
(74,30,l),
(74,0,l),
(418,0,l),
(418,30,l),
(111,30,l),
(418,420,l),
(418,450,l),
(74,450,l),
(74,420,l),
(381,420,l)
);
}
);
width = 492;
}
);
metricLeft = "=n-10";
metricRight = "=|";
unicode = 122;
},
{
glyphname = zero;
lastChange = "2025-08-05 15:19:57 +0000";
layers = (
{
layerId = m002;
shapes = (
{
closed = 1;
nodes = (
(141,516,o),
(193,570,o),
(269,570,cs),
(335,570,o),
(387,516,o),
(387,325,cs),
(387,134,o),
(335,80,o),
(269,80,cs),
(193,80,o),
(141,134,o),
(141,325,cs)
);
},
{
closed = 1;
nodes = (
(30,63,o),
(140,-16,o),
(269,-16,cs),
(389,-16,o),
(498,63,o),
(498,325,cs),
(498,587,o),
(389,666,o),
(269,666,cs),
(140,666,o),
(30,587,o),
(30,325,cs)
);
}
);
width = 528;
},
{
layerId = m004;
shapes = (
{
closed = 1;
nodes = (
(49,565,o),
(133,632,o),
(221,632,cs),
(295,632,o),
(379,565,o),
(379,325,cs),
(379,84,o),
(295,17,o),
(221,17,cs),
(133,17,o),
(49,84,o),
(49,325,cs)
);
},
{
closed = 1;
nodes = (
(10,63,o),
(118,-16,o),
(219,-16,cs),
(312,-16,o),
(418,63,o),
(418,325,cs),
(418,587,o),
(312,666,o),
(219,666,cs),
(118,666,o),
(10,587,o),
(10,325,cs)
);
}
);
width = 428;
}
);
unicode = 48;
},
{
glyphname = one;
lastChange = "2025-08-05 15:19:57 +0000";
layers = (
{
layerId = m002;
shapes = (
{
closed = 1;
nodes = (
(196,650,l),
(196,638,l),
(196,569,o),
(154,556,o),
(30,556,c),
(30,468,l),
(196,468,l),
(196,0,l),
(302,0,l),
(302,650,l)
);
}
);
width = 332;
},
{
layerId = m004;
shapes = (
{
closed = 1;
nodes = (
(219,650,l),
(219,638,l),
(219,589,o),
(187,576,o),
(83,576,c),
(83,546,l),
(219,546,l),
(219,0,l),
(255,0,l),
(255,650,l)
);
}
);
width = 339;
}
);
unicode = 49;
},
{
glyphname = two;
lastChange = "2025-08-05 15:19:57 +0000";
layers = (
{
layerId = m002;
shapes = (
{
closed = 1;
nodes = (
(457,0,l),
(457,95,l),
(191,95,l),
(350,263,ls),
(545,469,o),
(434,656,o),
(252,666,cs),
(166,671,o),
(112,661,o),
(52,650,c),
(52,555,l),
(112,567,o),
(175,577,o),
(243,571,cs),
(364,561,o),
(373,435,o),
(275,330,cs),
(30,66,l),
(30,0,l)
);
}
);
width = 487;
},
{
layerId = m004;
shapes = (
{
closed = 1;
nodes = (
(407,0,l),
(407,32,l),
(86,32,l),
(253,221,ls),
(414,403,o),
(493,666,o),
(202,666,cs),
(171,666,o),
(104,662,o),
(55,650,c),
(55,618,l),
(101,629,o),
(155,633,o),
(202,633,cs),
(472,635,o),
(363,395,o),
(204,215,cs),
(30,17,l),
(30,0,l)
);
}
);
width = 377;
}
);
unicode = 50;
},
{
glyphname = three;
lastChange = "2025-08-05 15:19:57 +0000";
layers = (
{
layerId = m002;
shapes = (
{
closed = 1;
nodes = (
(358,-16,o),
(457,78,o),
(457,198,cs),
(457,294,o),
(376,373,o),
(242,393,c),
(415,577,l),
(415,650,l),
(30,650,l),
(30,555,l),
(276,555,l),
(104,379,l),
(104,310,l),
(319,310,o),
(346,260,o),
(346,198,cs),
(346,145,o),
(324,79,o),
(190,79,cs),
(152,79,o),
(89,85,o),
(39,95,c),
(39,0,l),
(89,-9,o),
(143,-16,o),
(189,-16,cs)
);
}
);
width = 487;
},
{
background = {
shapes = (
{
closed = 1;
nodes = (
(328,-16,o),
(387,48,o),
(387,178,cs),
(387,294,o),
(290,359,o),
(156,359,c),
(352,627,l),
(352,650,l),
(0,650,l),
(0,618,l),
(303,618,l),
(114,359,l),
(114,330,l),
(115,330,ls),
(311,330,o),
(348,260,o),
(348,178,cs),
(348,51,o),
(294,16,o),
(160,16,cs),
(113,17,o),
(59,21,o),
(13,32,c),
(13,0,l),
(62,-12,o),
(129,-16,o),
(160,-16,cs)
);
}
);
};
layerId = m004;
shapes = (
{
closed = 1;
nodes = (
(327,-16,o),
(387,48,o),
(387,158,cs),
(387,294,o),
(290,359,o),
(156,359,c),
(352,627,l),
(352,650,l),
(0,650,l),
(0,618,l),
(303,618,l),
(114,359,l),
(114,330,l),
(311,330,o),
(353,250,o),
(352,158,cs),
(351,61,o),
(294,16,o),
(160,16,cs),
(113,16,o),
(59,21,o),
(13,32,c),
(13,0,l),
(62,-12,o),
(129,-16,o),
(159,-16,cs)
);
}
);
width = 387;
}
);
unicode = 51;
},
{
glyphname = four;
lastChange = "2025-08-05 15:19:57 +0000";
layers = (
{
layerId = m002;
shapes = (
{
closed = 1;
nodes = (
(306,650,l),
(306,0,l),
(412,0,l),
(412,650,l)
);
},
{
closed = 1;
nodes = (
(30,143,l),
(487,143,l),
(487,231,l),
(151,231,l),
(406,650,l),
(306,650,l),
(30,209,l)
);
}
);
width = 487;
},
{
layerId = m004;
shapes = (
{
closed = 1;
nodes = (
(322,650,l),
(322,0,l),
(358,0,l),
(358,650,l)
);
},
{
closed = 1;
nodes = (
(56,143,l),
(433,143,l),
(433,173,l),
(91,173,l),
(355,650,l),
(320,650,l),
(56,173,l)
);
}
);
width = 433;
}
);
unicode = 52;
},
{
glyphname = five;
lastChange = "2025-08-05 15:19:57 +0000";
layers = (
{
layerId = m002;
shapes = (
{
closed = 1;
nodes = (
(362,-16,o),
(441,78,o),
(441,193,cs),
(441,339,o),
(353,409,o),
(191,409,cs),
(137,409,l),
(156,562,l),
(407,562,l),
(407,650,l),
(73,650,l),
(30,304,l),
(64,306,o),
(105,310,o),
(157,310,cs),
(293,310,o),
(330,271,o),
(330,193,cs),
(330,145,o),
(328,79,o),
(182,79,cs),
(144,79,o),
(81,85,o),
(31,95,c),
(31,0,l),
(81,-9,o),
(135,-16,o),
(181,-16,cs)
);
}
);
width = 471;
},
{
background = {
shapes = (
{
closed = 1;
nodes = (
(344,-16,o),
(404,48,o),
(404,158,cs),
(404,294,o),
(307,359,o),
(173,359,c),
(369,627,l),
(369,650,l),
(17,650,l),
(17,618,l),
(320,618,l),
(131,359,l),
(131,330,l),
(328,330,o),
(370,250,o),
(369,158,cs),
(368,61,o),
(311,16,o),
(177,16,cs),
(130,16,o),
(76,21,o),
(30,32,c),
(30,0,l),
(79,-12,o),
(146,-16,o),
(176,-16,cs)
);
}
);
};
layerId = m004;
shapes = (
{
closed = 1;
nodes = (
(344,-16,o),
(404,48,o),
(404,158,cs),
(404,294,o),
(327,359,o),
(131,359,cs),
(83,359,l),
(112,618,l),
(369,618,l),
(369,650,l),
(83,650,l),
(47,330,l),
(64,331,o),
(104,330,o),
(131,330,cs),
(328,330,o),
(370,250,o),
(369,158,cs),
(368,61,o),
(311,16,o),
(180,16,cs),
(130,16,o),
(76,21,o),
(30,32,c),
(30,0,l),
(79,-12,o),
(146,-16,o),
(181,-16,cs)
);
}
);
width = 434;
}
);
unicode = 53;
},
{
glyphname = six;
lastChange = "2025-08-05 15:19:57 +0000";
layers = (
{
layerId = m002;
shapes = (
{
closed = 1;
nodes = (
(371,117,o),
(329,77,o),
(253,77,cs),
(187,77,o),
(145,117,o),
(145,195,cs),
(145,273,o),
(177,322,o),
(253,322,cs),
(329,322,o),
(371,273,o),
(371,195,cs)
);
},
{
closed = 1;
nodes = (
(382,-16,o),
(482,48,o),
(482,193,cs),
(482,338,o),
(382,415,o),
(253,415,cs),
(133,415,o),
(23,352,o),
(34,193,cs),
(45,38,o),
(133,-16,o),
(253,-16,cs)
);
},
{
closed = 1;
nodes = (
(145,193,l),
(143,227,l),
(123,468,o),
(158,571,o),
(279,571,cs),
(317,571,o),
(360,565,o),
(410,555,c),
(410,650,l),
(360,659,o),
(326,666,o),
(280,666,cs),
(279,666,ls),
(143,666,o),
(5,594,o),
(34,193,c),
(34,193,l)
);
}
);
width = 512;
},
{
background = {
shapes = (
{
closed = 1;
nodes = (
(41,172,l),
(39,206,ls),
(19,446,o),
(129,633,o),
(230,634,cs),
(281,634,o),
(335,629,o),
(381,618,c),
(381,650,l),
(332,662,o),
(265,666,o),
(230,666,cs),
(114,666,o),
(-23,593,o),
(6,193,c),
(5,172,l)
);
}
);
};
layerId = m004;
shapes = (
{
closed = 1;
nodes = (
(351,70,o),
(290,16,o),
(190,16,cs),
(102,16,o),
(42,70,o),
(42,172,cs),
(42,275,o),
(87,340,o),
(190,340,cs),
(290,340,o),
(351,275,o),
(351,172,cs)
);
},
{
closed = 1;
nodes = (
(298,-16,o),
(388,42,o),
(388,172,cs),
(388,302,o),
(298,372,o),
(192,372,cs),
(94,372,o),
(-5,315,o),
(5,172,cs),
(15,33,o),
(94,-16,o),
(192,-16,cs)
);
},
{
closed = 1;
nodes = (
(42,172,l),
(42,181,l),
(21,535,o),
(100,636,o),
(221,634,cs),
(261,634,o),
(295,629,o),
(342,618,c),
(342,650,l),
(292,662,o),
(266,666,o),
(222,666,cs),
(221,666,ls),
(91,666,o),
(-24,577,o),
(5,176,c),
(5,172,l)
);
}
);
width = 388;
}
);
unicode = 54;
},
{
glyphname = seven;
lastChange = "2025-08-05 15:19:57 +0000";
layers = (
{
layerId = m002;
shapes = (
{
closed = 1;
nodes = (
(460,650,l),
(30,650,l),
(30,562,l),
(349,562,l),
(116,0,l),
(216,0,l),
(460,584,l)
);
}
);
width = 490;
},
{
layerId = m004;
shapes = (
{
closed = 1;
nodes = (
(366,650,l),
(0,650,l),
(0,618,l),
(323,618,l),
(86,0,l),
(122,0,l),
(366,634,l)
);
}
);
width = 430;
}
);
unicode = 55;
},
{
glyphname = eight;
lastChange = "2025-08-05 15:19:57 +0000";
layers = (
{
layerId = m002;
shapes = (
{
closed = 1;
nodes = (
(141,411,o),
(42,338,o),
(42,193,cs),
(42,48,o),
(132,-16,o),
(270,-16,cs),
(408,-16,o),
(498,48,o),
(498,193,cs),
(498,338,o),
(399,411,o),
(270,411,cs)
);
},
{
closed = 1;
nodes = (
(153,271,o),
(185,320,o),
(270,320,cs),
(355,320,o),
(387,271,o),
(387,193,cs),
(387,115,o),
(345,75,o),
(270,75,cs),
(195,75,o),
(153,115,o),
(153,193,cs)
);
},
{
closed = 1;
nodes = (
(82,384,o),
(161,320,o),
(270,320,cs),
(379,320,o),
(458,384,o),
(458,490,cs),
(458,601,o),
(388,665,o),
(270,665,cs),
(152,665,o),
(82,601,o),
(82,490,cs)
);
},
{
closed = 1;
nodes = (
(193,539,o),
(205,574,o),
(270,574,cs),
(335,574,o),
(347,539,o),
(347,490,cs),
(347,441,o),
(325,411,o),
(270,411,cs),
(215,411,o),
(193,441,o),
(193,490,cs)
);
}
);
width = 540;
},
{
layerId = m004;
shapes = (
{
closed = 1;
nodes = (
(60,42,o),
(142,-16,o),
(260,-16,cs),
(369,-16,o),
(458,42,o),
(458,174,cs),
(458,306,o),
(387,373,o),
(259,373,cs),
(131,373,o),
(60,306,o),
(60,174,cs)
);
},
{
closed = 1;
nodes = (
(96,276,o),
(138,341,o),
(260,341,cs),
(382,341,o),
(422,276,o),
(422,172,cs),
(422,68,o),
(358,16,o),
(260,16,cs),
(148,16,o),
(96,68,o),
(96,172,cs)
);
},
{
closed = 1;
nodes = (
(81,405,o),
(131,341,o),
(260,341,cs),
(389,341,o),
(439,405,o),
(439,501,cs),
(439,602,o),
(369,666,o),
(260,666,cs),
(151,666,o),
(81,602,o),
(81,501,cs)
);
},
{
closed = 1;
nodes = (
(117,573,o),
(152,634,o),
(260,634,cs),
(368,634,o),
(403,573,o),
(403,499,cs),
(403,424,o),
(367,373,o),
(260,373,cs),
(153,373,o),
(117,424,o),
(117,499,cs)
);
}
);
width = 518;
}
);
metricRight = "=|";
unicode = 56;
},
{
glyphname = nine;
lastChange = "2025-08-05 15:19:57 +0000";
layers = (
{
layerId = m002;
shapes = (
{
closed = 1;
nodes = (
(116,533,o),
(158,573,o),
(234,573,cs),
(300,573,o),
(342,533,o),
(342,455,cs),
(342,377,o),
(310,328,o),
(234,328,cs),
(158,328,o),
(116,377,o),
(116,455,cs)
);
},
{
closed = 1;
nodes = (
(105,666,o),
(5,602,o),
(5,457,cs),
(5,312,o),
(105,235,o),
(234,235,cs),
(354,235,o),
(464,298,o),
(453,457,cs),
(442,612,o),
(354,666,o),
(234,666,cs)
);
},
{
closed = 1;
nodes = (
(342,457,l),
(344,423,l),
(364,182,o),
(329,79,o),
(208,79,cs),
(170,79,o),
(127,85,o),
(77,95,c),
(77,0,l),
(127,-9,o),
(161,-16,o),
(207,-16,cs),
(208,-16,ls),
(344,-16,o),
(482,56,o),
(453,457,c),
(453,457,l)
);
}
);
width = 512;
},
{
layerId = m004;
shapes = (
{
closed = 1;
nodes = (
(37,580,o),
(98,634,o),
(198,634,cs),
(286,634,o),
(346,580,o),
(346,478,cs),
(346,375,o),
(301,310,o),
(198,310,cs),
(98,310,o),
(37,375,o),
(37,478,cs)
);
},
{
closed = 1;
nodes = (
(90,666,o),
(0,608,o),
(0,478,cs),
(0,348,o),
(90,278,o),
(196,278,cs),
(294,278,o),
(393,335,o),
(383,478,cs),
(373,617,o),
(294,666,o),
(196,666,cs)
);
},
{
closed = 1;
nodes = (
(346,478,l),
(346,469,l),
(367,115,o),
(288,14,o),
(167,16,cs),
(127,16,o),
(93,21,o),
(46,32,c),
(46,0,l),
(96,-12,o),
(122,-16,o),
(166,-16,cs),
(167,-16,ls),
(297,-16,o),
(412,73,o),
(383,474,c),
(383,478,l)
);
}
);
width = 388;
}
);
unicode = 57;
},
{
glyphname = period;
lastChange = "2025-08-05 15:19:57 +0000";
layers = (
{
layerId = m002;
shapes = (
{
closed = 1;
nodes = (
(139,-12,o),
(153,4,o),
(153,54,cs),
(153,102,o),
(139,117,o),
(88,117,cs),
(37,117,o),
(23,102,o),
(23,54,cs),
(23,4,o),
(37,-12,o),
(88,-12,cs)
);
}
);
width = 176;
},
{
layerId = m004;
shapes = (
{
closed = 1;
nodes = (
(81,-12,o),
(88,-6,o),
(88,17,cs),
(88,39,o),
(81,46,o),
(59,46,cs),
(37,46,o),
(30,39,o),
(30,17,cs),
(30,-6,o),
(37,-12,o),
(59,-12,cs)
);
}
);
width = 118;
}
);
metricRight = "=|";
unicode = 46;
},
{
glyphname = comma;
lastChange = "2025-08-05 15:19:57 +0000";
layers = (
{
layerId = m002;
shapes = (
{
closed = 1;
nodes = (
(124,-127,o),
(157,-55,o),
(157,34,cs),
(157,103,o),
(142,118,o),
(90,118,cs),
(38,118,o),
(23,103,o),
(23,51,cs),
(23,-11,o),
(48,-16,o),
(74,-16,cs),
(81,-16,o),
(90,-14,o),
(98,-11,c),
(96,-48,o),
(77,-86,o),
(33,-86,c),
(33,-127,l)
);
}
);
width = 179;
},
{
layerId = m004;
shapes = (
{
closed = 1;
nodes = (
(68,-39,o),
(78,-26,o),
(78,12,cs),
(78,41,o),
(71,48,o),
(49,48,cs),
(27,48,o),
(20,41,o),
(20,19,cs),
(20,-7,o),
(31,-9,o),
(42,-9,cs),
(46,-9,o),
(49,-8,o),
(52,-7,c),
(52,-17,o),
(49,-34,o),
(40,-48,c),
(62,-48,l)
);
}
);
width = 179;
}
);
unicode = 44;
},
{
glyphname = colon;
lastChange = "2025-08-05 15:19:57 +0000";
layers = (
{
layerId = m004;
shapes = (
{
closed = 1;
nodes = (
(81,-12,o),
(88,-6,o),
(88,17,cs),
(88,39,o),
(81,46,o),
(59,46,cs),
(37,46,o),
(30,39,o),
(30,17,cs),
(30,-6,o),
(37,-12,o),
(59,-12,cs)
);
},
{
closed = 1;
nodes = (
(81,392,o),
(88,398,o),
(88,421,cs),
(88,443,o),
(81,450,o),
(59,450,cs),
(37,450,o),
(30,443,o),
(30,421,cs),
(30,398,o),
(37,392,o),
(59,392,cs)
);
}
);
width = 118;
},
{
layerId = m002;
shapes = (
{
closed = 1;
nodes = (
(139,-12,o),
(153,4,o),
(153,54,cs),
(153,102,o),
(139,117,o),
(88,117,cs),
(37,117,o),
(23,102,o),
(23,54,cs),
(23,4,o),
(37,-12,o),
(88,-12,cs)
);
},
{
closed = 1;
nodes = (
(139,258,o),
(153,274,o),
(153,324,cs),
(153,372,o),
(139,387,o),
(88,387,cs),
(37,387,o),
(23,372,o),
(23,324,cs),
(23,274,o),
(37,258,o),
(88,258,cs)
);
}
);
width = 176;
}
);
metricRight = "=|";
unicode = 58;
},
{
glyphname = semicolon;
lastChange = "2025-08-05 15:19:57 +0000";
layers = (
{
layerId = m004;
shapes = (
{
closed = 1;
nodes = (
(68,-39,o),
(78,-26,o),
(78,12,cs),
(78,41,o),
(71,48,o),
(49,48,cs),
(27,48,o),
(20,41,o),
(20,19,cs),
(20,-7,o),
(31,-9,o),
(42,-9,cs),
(46,-9,o),
(49,-8,o),
(52,-7,c),
(52,-17,o),
(49,-34,o),
(40,-48,c),
(62,-48,l)
);
},
{
closed = 1;
nodes = (
(81,392,o),
(88,398,o),
(88,421,cs),
(88,443,o),
(81,450,o),
(59,450,cs),
(37,450,o),
(30,443,o),
(30,421,cs),
(30,398,o),
(37,392,o),
(59,392,cs)
);
}
);
width = 108;
},
{
layerId = m002;
shapes = (
{
closed = 1;
nodes = (
(124,-127,o),
(157,-55,o),
(157,34,cs),
(157,103,o),
(142,118,o),
(90,118,cs),
(38,118,o),
(23,103,o),
(23,51,cs),
(23,-11,o),
(48,-16,o),
(74,-16,cs),
(81,-16,o),
(90,-14,o),
(98,-11,c),
(96,-48,o),
(77,-86,o),
(33,-86,c),
(33,-127,l)
);
},
{
closed = 1;
nodes = (
(139,258,o),
(153,274,o),
(153,324,cs),
(153,372,o),
(139,387,o),
(88,387,cs),
(37,387,o),
(23,372,o),
(23,324,cs),
(23,274,o),
(37,258,o),
(88,258,cs)
);
}
);
width = 180;
}
);
metricRight = "=|";
unicode = 59;
},
{
glyphname = exclam;
lastChange = "2025-08-05 15:19:57 +0000";
layers = (
{
layerId = m002;
shapes = (
{
closed = 1;
nodes = (
(172,164,l),
(184,384,l),
(184,650,l),
(72,650,l),
(72,384,l),
(84,164,l)
);
},
{
closed = 1;
nodes = (
(173,-13,o),
(186,1,o),
(186,45,cs),
(186,89,o),
(173,102,o),
(128,102,cs),
(83,102,o),
(70,89,o),
(70,45,cs),
(70,1,o),
(83,-13,o),
(128,-13,cs)
);
}
);
width = 256;
},
{
layerId = m004;
shapes = (
{
closed = 1;
nodes = (
(123,138,l),
(130,450,l),
(130,650,l),
(93,650,l),
(93,450,l),
(100,138,l)
);
},
{
closed = 1;
nodes = (
(135,-12,o),
(142,-6,o),
(142,17,cs),
(142,39,o),
(135,46,o),
(113,46,cs),
(91,46,o),
(84,39,o),
(84,17,cs),
(84,-6,o),
(91,-12,o),
(113,-12,cs)
);
}
);
width = 226;
}
);
metricLeft = "=H";
metricRight = "=|";
unicode = 33;
},
{
glyphname = exclamdown;
lastChange = "2025-08-05 15:19:57 +0000";
layers = (
{
layerId = m004;
shapes = (
{
closed = 1;
nodes = (
(103,312,l),
(96,0,l),
(96,-200,l),
(133,-200,l),
(133,0,l),
(126,312,l)
);
},
{
closed = 1;
nodes = (
(91,462,o),
(84,456,o),
(84,433,cs),
(84,411,o),
(91,404,o),
(113,404,cs),
(135,404,o),
(142,411,o),
(142,433,cs),
(142,456,o),
(135,462,o),
(113,462,cs)
);
}
);
width = 226;
},
{
layerId = m002;
shapes = (
{
closed = 1;
nodes = (
(84,286,l),
(72,66,l),
(72,-200,l),
(184,-200,l),
(184,66,l),
(172,286,l)
);
},
{
closed = 1;
nodes = (
(83,463,o),
(70,449,o),
(70,405,cs),
(70,361,o),
(83,348,o),
(128,348,cs),
(173,348,o),
(186,361,o),
(186,405,cs),
(186,449,o),
(173,463,o),
(128,463,cs)
);
}
);
width = 256;
}
);
metricLeft = "=H";
metricRight = "=H";
unicode = 161;
},
{
glyphname = question;
lastChange = "2025-08-05 15:19:57 +0000";
layers = (
{
layerId = m004;
shapes = (
{
closed = 1;
nodes = (
(217,-16,o),
(230,-3,o),
(230,45,cs),
(230,93,o),
(217,106,o),
(169,106,cs),
(121,106,o),
(108,93,o),
(108,45,cs),
(108,-3,o),
(121,-16,o),
(169,-16,cs)
);
},
{
closed = 1;
nodes = (
(218,164,l),
(218,325,o),
(389,355,o),
(389,492,cs),
(389,602,o),
(324,659,o),
(220,665,cs),
(134,670,o),
(80,660,o),
(20,649,c),
(20,554,l),
(80,566,o),
(143,576,o),
(211,570,cs),
(250,567,o),
(292,550,o),
(292,497,cs),
(292,408,o),
(119,345,o),
(119,164,c)
);
}
);
width = 600;
},
{
layerId = m002;
shapes = (
{
closed = 1;
nodes = (
(217,-16,o),
(230,-3,o),
(230,45,cs),
(230,93,o),
(217,106,o),
(169,106,cs),
(121,106,o),
(108,93,o),
(108,45,cs),
(108,-3,o),
(121,-16,o),
(169,-16,cs)
);
},
{
closed = 1;
nodes = (
(218,164,l),
(218,325,o),
(389,355,o),
(389,492,cs),
(389,602,o),
(324,659,o),
(220,665,cs),
(134,670,o),
(80,660,o),
(20,649,c),
(20,554,l),
(80,566,o),
(143,576,o),
(211,570,cs),
(250,567,o),
(292,550,o),
(292,497,cs),
(292,408,o),
(119,345,o),
(119,164,c)
);
}
);
width = 409;
}
);
unicode = 63;
},
{
glyphname = questiondown;
lastChange = "2025-08-05 15:19:57 +0000";
layers = (
{
layerId = m004;
shapes = (
{
closed = 1;
nodes = (
(201,471,o),
(188,458,o),
(188,410,cs),
(188,362,o),
(201,349,o),
(249,349,cs),
(297,349,o),
(310,362,o),
(310,410,cs),
(310,458,o),
(297,471,o),
(249,471,cs)
);
},
{
closed = 1;
nodes = (
(200,291,l),
(200,130,o),
(29,100,o),
(29,-37,cs),
(29,-147,o),
(94,-204,o),
(198,-210,cs),
(284,-215,o),
(338,-205,o),
(398,-194,c),
(398,-99,l),
(338,-111,o),
(275,-121,o),
(207,-115,cs),
(168,-112,o),
(126,-95,o),
(126,-42,cs),
(126,47,o),
(299,110,o),
(299,291,c)
);
}
);
width = 418;
},
{
layerId = m002;
shapes = (
{
closed = 1;
nodes = (
(201,471,o),
(188,458,o),
(188,410,cs),
(188,362,o),
(201,349,o),
(249,349,cs),
(297,349,o),
(310,362,o),
(310,410,cs),
(310,458,o),
(297,471,o),
(249,471,cs)
);
},
{
closed = 1;
nodes = (
(200,291,l),
(200,130,o),
(29,100,o),
(29,-37,cs),
(29,-147,o),
(94,-204,o),
(198,-210,cs),
(284,-215,o),
(338,-205,o),
(398,-194,c),
(398,-99,l),
(338,-111,o),
(275,-121,o),
(207,-115,cs),
(168,-112,o),
(126,-95,o),
(126,-42,cs),
(126,47,o),
(299,110,o),
(299,291,c)
);
}
);
width = 418;
}
);
unicode = 191;
},
{
glyphname = asterisk;
lastChange = "2025-08-05 15:19:57 +0000";
layers = (
{
layerId = m002;
shapes = (
{
closed = 1;
nodes = (
(297,650,l),
(191,650,l),
(206,484,l),
(52,550,l),
(19,448,l),
(183,412,l),
(72,285,l),
(159,223,l),
(244,367,l),
(330,222,l),
(416,285,l),
(305,411,l),
(469,448,l),
(436,549,l),
(282,483,l)
);
}
);
width = 486;
},
{
layerId = m004;
shapes = (
{
closed = 1;
nodes = (
(297,650,l),
(191,650,l),
(206,484,l),
(52,550,l),
(19,448,l),
(183,412,l),
(72,285,l),
(159,223,l),
(244,367,l),
(330,222,l),
(416,285,l),
(305,411,l),
(469,448,l),
(436,549,l),
(282,483,l)
);
}
);
width = 486;
}
);
unicode = 42;
},
{
glyphname = slash;
lastChange = "2025-08-05 15:19:57 +0000";
layers = (
{
layerId = m004;
shapes = (
{
closed = 1;
nodes = (
(20,2,l),
(53,2,l),
(311,700,l),
(278,700,l)
);
}
);
width = 331;
},
{
layerId = m002;
shapes = (
{
closed = 1;
nodes = (
(20,-28,l),
(102,-28,l),
(360,680,l),
(278,680,l)
);
}
);
width = 380;
}
);
metricRight = "=|";
unicode = 47;
},
{
glyphname = hyphen;
lastChange = "2025-08-05 15:19:57 +0000";
layers = (
{
layerId = m002;
shapes = (
{
closed = 1;
nodes = (
(20,243,l),
(331,243,l),
(331,329,l),
(20,329,l)
);
}
);
width = 351;
},
{
layerId = m004;
shapes = (
{
closed = 1;
nodes = (
(20,272,l),
(331,272,l),
(331,302,l),
(20,302,l)
);
}
);
width = 351;
}
);
unicode = 45;
},
{
glyphname = parenleft;
lastChange = "2025-08-05 15:19:57 +0000";
layers = (
{
layerId = m002;
shapes = (
{
closed = 1;
nodes = (
(70,1,o),
(136,-118,o),
(241,-127,cs),
(312,-133,l),
(312,-45,l),
(274,-34,ls),
(217,-18,o),
(176,52,o),
(176,284,cs),
(176,506,o),
(208,583,o),
(274,602,cs),
(312,613,l),
(312,701,l),
(241,695,ls),
(126,685,o),
(70,567,o),
(70,284,cs)
);
}
);
width = 357;
},
{
layerId = m004;
shapes = (
{
closed = 1;
nodes = (
(84,-22,o),
(136,-132,o),
(186,-132,cs),
(216,-132,l),
(216,-103,l),
(213,-103,ls),
(155,-103,o),
(121,-13,o),
(121,284,cs),
(121,581,o),
(155,671,o),
(213,671,cs),
(216,671,l),
(216,700,l),
(186,700,ls),
(136,700,o),
(84,590,o),
(84,284,cs)
);
}
);
width = 301;
}
);
metricLeft = "=H";
unicode = 40;
},
{
glyphname = parenright;
lastChange = "2025-08-05 15:19:57 +0000";
layers = (
{
layerId = m002;
shapes = (
{
closed = 1;
nodes = (
(287,567,o),
(231,685,o),
(116,695,cs),
(45,701,l),
(45,613,l),
(83,602,ls),
(149,583,o),
(181,506,o),
(181,284,cs),
(181,52,o),
(140,-18,o),
(83,-34,cs),
(45,-45,l),
(45,-133,l),
(116,-127,ls),
(221,-118,o),
(287,1,o),
(287,284,cs)
);
}
);
width = 357;
},
{
layerId = m004;
shapes = (
{
closed = 1;
nodes = (
(216,590,o),
(164,700,o),
(114,700,cs),
(84,700,l),
(84,671,l),
(87,671,ls),
(145,671,o),
(179,581,o),
(179,284,cs),
(179,-13,o),
(145,-103,o),
(87,-103,cs),
(84,-103,l),
(84,-132,l),
(114,-132,ls),
(164,-132,o),
(216,-22,o),
(216,284,cs)
);
}
);
width = 300;
}
);
metricRight = "=H";
unicode = 41;
},
{
glyphname = braceleft;
lastChange = "2025-08-05 15:19:57 +0000";
layers = (
{
layerId = m004;
shapes = (
{
closed = 1;
nodes = (
(296,-138,l),
(296,-108,l),
(281,-108,ls),
(251,-108,o),
(232,-102,o),
(232,-45,cs),
(232,205,ls),
(232,268,o),
(206,288,o),
(149,288,cs),
(134,288,l),
(134,258,l),
(149,258,ls),
(179,258,o),
(198,252,o),
(198,195,cs),
(198,-55,ls),
(198,-118,o),
(224,-138,o),
(281,-138,cs)
);
},
{
closed = 1;
nodes = (
(224,711,o),
(198,691,o),
(198,628,cs),
(198,351,ls),
(198,294,o),
(179,288,o),
(149,288,cs),
(134,288,l),
(134,258,l),
(149,258,ls),
(205,258,o),
(232,278,o),
(232,341,cs),
(232,618,ls),
(232,675,o),
(251,681,o),
(281,681,cs),
(296,681,l),
(296,711,l),
(281,711,ls)
);
}
);
width = 600;
},
{
layerId = m002;
shapes = (
{
closed = 1;
nodes = (
(358,-148,l),
(358,-60,l),
(285,-60,ls),
(252,-60,o),
(242,-45,o),
(242,-19,cs),
(242,196,ls),
(242,283,o),
(163,308,o),
(123,308,cs),
(20,308,l),
(20,234,l),
(93,234,ls),
(126,234,o),
(136,212,o),
(136,186,cs),
(136,-29,ls),
(136,-116,o),
(182,-148,o),
(255,-148,cs)
);
},
{
closed = 1;
nodes = (
(182,701,o),
(136,669,o),
(136,582,cs),
(136,366,ls),
(136,340,o),
(126,318,o),
(93,318,cs),
(20,318,l),
(20,244,l),
(123,244,ls),
(163,244,o),
(242,269,o),
(242,356,cs),
(242,572,ls),
(242,598,o),
(252,613,o),
(285,613,cs),
(358,613,l),
(358,701,l),
(255,701,ls)
);
}
);
width = 388;
}
);
unicode = 123;
},
{
glyphname = braceright;
lastChange = "2025-08-05 15:19:57 +0000";
layers = (
{
layerId = m004;
shapes = (
{
closed = 1;
nodes = (
(206,-148,o),
(232,-128,o),
(232,-65,cs),
(232,195,ls),
(232,252,o),
(251,258,o),
(281,258,cs),
(296,258,l),
(296,288,l),
(281,288,ls),
(224,288,o),
(198,268,o),
(198,205,cs),
(198,-55,ls),
(198,-112,o),
(179,-118,o),
(149,-118,cs),
(134,-118,l),
(134,-148,l),
(149,-148,ls)
);
},
{
closed = 1;
nodes = (
(134,711,l),
(134,681,l),
(149,681,ls),
(179,681,o),
(198,675,o),
(198,618,cs),
(198,341,ls),
(198,278,o),
(225,258,o),
(281,258,cs),
(296,258,l),
(296,288,l),
(281,288,ls),
(251,288,o),
(232,294,o),
(232,351,cs),
(232,628,ls),
(232,691,o),
(206,711,o),
(149,711,cs)
);
}
);
width = 600;
},
{
layerId = m002;
shapes = (
{
closed = 1;
nodes = (
(206,-148,o),
(252,-116,o),
(252,-29,cs),
(252,186,ls),
(252,212,o),
(262,234,o),
(295,234,cs),
(368,234,l),
(368,308,l),
(265,308,ls),
(225,308,o),
(146,283,o),
(146,196,cs),
(146,-19,ls),
(146,-45,o),
(136,-60,o),
(103,-60,cs),
(30,-60,l),
(30,-148,l),
(133,-148,ls)
);
},
{
closed = 1;
nodes = (
(30,701,l),
(30,613,l),
(103,613,ls),
(136,613,o),
(146,598,o),
(146,572,cs),
(146,356,ls),
(146,269,o),
(225,244,o),
(265,244,cs),
(368,244,l),
(368,318,l),
(295,318,ls),
(262,318,o),
(252,340,o),
(252,366,cs),
(252,582,ls),
(252,669,o),
(206,701,o),
(133,701,cs)
);
}
);
width = 388;
}
);
unicode = 125;
},
{
glyphname = bracketleft;
lastChange = "2025-08-05 15:19:57 +0000";
layers = (
{
layerId = m002;
shapes = (
{
closed = 1;
nodes = (
(282,-148,l),
(282,-60,l),
(219,-60,ls),
(186,-60,o),
(176,-45,o),
(176,-19,cs),
(176,572,ls),
(176,598,o),
(186,613,o),
(219,613,cs),
(282,613,l),
(282,701,l),
(189,701,ls),
(116,701,o),
(70,669,o),
(70,582,cs),
(70,-29,ls),
(70,-116,o),
(116,-148,o),
(189,-148,cs)
);
}
);
width = 292;
},
{
background = {
shapes = (
{
closed = 1;
nodes = (
(182,-148,l),
(182,-60,l),
(119,-60,ls),
(86,-60,o),
(76,-45,o),
(76,-19,cs),
(76,572,ls),
(76,598,o),
(86,613,o),
(119,613,cs),
(182,613,l),
(182,701,l),
(89,701,ls),
(16,701,o),
(-30,669,o),
(-30,582,cs),
(-30,-29,ls),
(-30,-116,o),
(16,-148,o),
(89,-148,cs)
);
}
);
};
layerId = m004;
shapes = (
{
closed = 1;
nodes = (
(182,-148,l),
(182,-118,l),
(167,-118,ls),
(137,-118,o),
(118,-112,o),
(118,-55,cs),
(118,608,ls),
(118,665,o),
(137,671,o),
(167,671,cs),
(182,671,l),
(182,701,l),
(167,701,ls),
(110,701,o),
(84,681,o),
(84,618,cs),
(84,-65,ls),
(84,-128,o),
(110,-148,o),
(167,-148,cs)
);
}
);
width = 192;
}
);
metricLeft = "=H";
unicode = 91;
},
{
glyphname = bracketright;
lastChange = "2025-08-05 15:19:57 +0000";
layers = (
{
layerId = m002;
shapes = (
{
closed = 1;
nodes = (
(176,-148,o),
(222,-116,o),
(222,-29,cs),
(222,582,ls),
(222,669,o),
(176,701,o),
(103,701,cs),
(10,701,l),
(10,613,l),
(73,613,ls),
(106,613,o),
(116,598,o),
(116,572,cs),
(116,-19,ls),
(116,-45,o),
(106,-60,o),
(73,-60,cs),
(10,-60,l),
(10,-148,l),
(103,-148,ls)
);
}
);
width = 292;
},
{
layerId = m004;
shapes = (
{
closed = 1;
nodes = (
(82,-148,o),
(108,-128,o),
(108,-65,cs),
(108,618,ls),
(108,681,o),
(82,701,o),
(25,701,cs),
(10,701,l),
(10,671,l),
(25,671,ls),
(55,671,o),
(74,665,o),
(74,608,cs),
(74,-55,ls),
(74,-112,o),
(55,-118,o),
(25,-118,cs),
(10,-118,l),
(10,-148,l),
(25,-148,ls)
);
}
);
width = 192;
}
);
metricRight = "=H";
unicode = 93;
},
{
glyphname = quotesinglbase;
lastChange = "2025-08-05 15:19:57 +0000";
layers = (
{
layerId = m004;
shapes = (
{
closed = 1;
nodes = (
(68,-39,o),
(78,-26,o),
(78,12,cs),
(78,41,o),
(71,48,o),
(49,48,cs),
(27,48,o),
(20,41,o),
(20,19,cs),
(20,-7,o),
(31,-9,o),
(42,-9,cs),
(46,-9,o),
(49,-8,o),
(52,-7,c),
(52,-17,o),
(49,-34,o),
(40,-48,c),
(62,-48,l)
);
}
);
width = 108;
},
{
layerId = m002;
shapes = (
{
closed = 1;
nodes = (
(124,-127,o),
(157,-55,o),
(157,34,cs),
(157,103,o),
(142,118,o),
(90,118,cs),
(38,118,o),
(23,103,o),
(23,51,cs),
(23,-11,o),
(48,-16,o),
(74,-16,cs),
(81,-16,o),
(90,-14,o),
(98,-11,c),
(96,-48,o),
(77,-86,o),
(33,-86,c),
(33,-127,l)
);
}
);
width = 187;
}
);
metricRight = "=30";
unicode = 8218;
},
{
glyphname = quoteleft;
lastChange = "2025-08-05 15:19:57 +0000";
layers = (
{
layerId = m004;
shapes = (
{
closed = 1;
nodes = (
(53,694,o),
(23,629,o),
(23,548,cs),
(23,495,o),
(45,472,o),
(83,472,cs),
(121,472,o),
(144,495,o),
(144,533,cs),
(144,571,o),
(121,593,o),
(98,593,cs),
(92,593,o),
(83,591,o),
(76,589,c),
(78,622,o),
(95,657,o),
(135,657,c),
(135,694,l)
);
}
);
width = 600;
},
{
layerId = m002;
shapes = (
{
closed = 1;
nodes = (
(53,694,o),
(23,629,o),
(23,548,cs),
(23,495,o),
(45,472,o),
(83,472,cs),
(121,472,o),
(144,495,o),
(144,533,cs),
(144,571,o),
(121,593,o),
(98,593,cs),
(92,593,o),
(83,591,o),
(76,589,c),
(78,622,o),
(95,657,o),
(135,657,c),
(135,694,l)
);
}
);
width = 144;
}
);
unicode = 8216;
},
{
glyphname = quoteright;
lastChange = "2025-08-05 15:19:57 +0000";
layers = (
{
layerId = m004;
shapes = (
{
closed = 1;
nodes = (
(114,472,o),
(144,537,o),
(144,618,cs),
(144,671,o),
(122,694,o),
(84,694,cs),
(46,694,o),
(23,671,o),
(23,633,cs),
(23,595,o),
(46,573,o),
(69,573,cs),
(75,573,o),
(84,575,o),
(91,577,c),
(89,544,o),
(72,509,o),
(32,509,c),
(32,472,l)
);
}
);
width = 600;
},
{
layerId = m002;
shapes = (
{
closed = 1;
nodes = (
(114,472,o),
(144,537,o),
(144,618,cs),
(144,671,o),
(122,694,o),
(84,694,cs),
(46,694,o),
(23,671,o),
(23,633,cs),
(23,595,o),
(46,573,o),
(69,573,cs),
(75,573,o),
(84,575,o),
(91,577,c),
(89,544,o),
(72,509,o),
(32,509,c),
(32,472,l)
);
}
);
width = 159;
}
);
unicode = 8217;
},
{
glyphname = quotedbl;
lastChange = "2025-08-05 15:19:57 +0000";
layers = (
{
layerId = m004;
shapes = (
{
closed = 1;
nodes = (
(112,520,l),
(124,680,l),
(72,680,l),
(84,520,l)
);
},
{
closed = 1;
nodes = (
(226,520,l),
(238,680,l),
(186,680,l),
(198,520,l)
);
}
);
width = 310;
},
{
layerId = m002;
shapes = (
{
closed = 1;
nodes = (
(162,460,l),
(174,680,l),
(72,680,l),
(84,460,l)
);
},
{
closed = 1;
nodes = (
(306,460,l),
(318,680,l),
(216,680,l),
(228,460,l)
);
}
);
width = 390;
}
);
metricRight = "=|";
unicode = 34;
},
{
glyphname = quotesingle;
lastChange = "2025-08-05 15:19:57 +0000";
layers = (
{
layerId = m004;
shapes = (
{
closed = 1;
nodes = (
(112,520,l),
(124,680,l),
(72,680,l),
(84,520,l)
);
}
);
width = 196;
},
{
layerId = m002;
shapes = (
{
closed = 1;
nodes = (
(162,460,l),
(174,680,l),
(72,680,l),
(84,460,l)
);
}
);
width = 246;
}
);
metricRight = "=|";
unicode = 39;
},
{
glyphname = ampersand;
lastChange = "2025-08-05 15:35:03 +0000";
layers = (
{
layerId = m004;
shapes = (
{
closed = 1;
nodes = (
(368,-16,o),
(362,11,o),
(412,20,c),
(412,115,l),
(362,105,o),
(359,79,o),
(291,79,cs),
(187,79,o),
(165,170,o),
(165,203,cs),
(165,245,o),
(132,322,o),
(347,323,cs),
(545,323,l),
(545,410,l),
(335,410,ls),
(122,410,o),
(54,279,o),
(54,203,cs),
(54,103,o),
(153,-16,o),
(292,-16,cs)
);
},
{
closed = 1;
nodes = (
(534,0,l),
(534,87,l),
(479,87,ls),
(446,87,o),
(437,102,o),
(437,128,cs),
(437,399,l),
(331,399,l),
(330,118,ls),
(330,19,o),
(370,0,o),
(449,0,cs)
);
},
{
closed = 1;
nodes = (
(222,383,l),
(194,401,o),
(186,416,o),
(186,495,cs),
(186,552,o),
(210,567,o),
(253,567,cs),
(291,567,o),
(324,561,o),
(374,551,c),
(374,646,l),
(324,655,o),
(300,662,o),
(254,662,cs),
(177,662,o),
(86,624,o),
(86,496,cs),
(86,392,o),
(110,351,o),
(153,316,c)
);
}
);
width = 600;
},
{
layerId = m002;
shapes = (
{
closed = 1;
nodes = (
(368,-16,o),
(362,11,o),
(412,20,c),
(412,115,l),
(362,105,o),
(359,79,o),
(291,79,cs),
(187,79,o),
(165,170,o),
(165,203,cs),
(165,245,o),
(132,322,o),
(347,323,cs),
(545,323,l),
(545,410,l),
(335,410,ls),
(122,410,o),
(54,279,o),
(54,203,cs),
(54,103,o),
(153,-16,o),
(292,-16,cs)
);
},
{
closed = 1;
nodes = (
(534,0,l),
(534,87,l),
(479,87,ls),
(446,87,o),
(437,102,o),
(437,128,cs),
(437,399,l),
(331,399,l),
(330,118,ls),
(330,19,o),
(370,0,o),
(449,0,cs)
);
},
{
closed = 1;
nodes = (
(222,383,l),
(194,401,o),
(186,416,o),
(186,495,cs),
(186,552,o),
(210,567,o),
(253,567,cs),
(291,567,o),
(324,561,o),
(374,551,c),
(374,646,l),
(324,655,o),
(300,662,o),
(254,662,cs),
(177,662,o),
(86,624,o),
(86,496,cs),
(86,392,o),
(110,351,o),
(153,316,c)
);
}
);
width = 600;
}
);
unicode = 38;
},
{
glyphname = dollar;
lastChange = "2025-08-05 15:34:53 +0000";
layers = (
{
layerId = m004;
shapes = (
{
closed = 1;
nodes = (
(280,-82,l),
(280,732,l),
(243,732,l),
(243,-82,l)
);
},
{
ref = S;
}
);
width = 600;
},
{
layerId = m002;
shapes = (
{
closed = 1;
nodes = (
(243,-82,l),
(301,-82,l),
(301,732,l),
(243,732,l)
);
},
{
ref = S;
}
);
width = 600;
}
);
metricLeft = "=S";
metricRight = "=S";
unicode = 36;
},
{
glyphname = plus;
lastChange = "2025-08-05 15:19:57 +0000";
layers = (
{
layerId = m004;
shapes = (
{
closed = 1;
nodes = (
(95,321,l),
(465,321,l),
(465,357,l),
(95,357,l)
);
},
{
closed = 1;
nodes = (
(262,524,l),
(262,154,l),
(298,154,l),
(298,524,l)
);
}
);
width = 560;
},
{
layerId = m002;
shapes = (
{
closed = 1;
nodes = (
(65,296,l),
(475,296,l),
(475,382,l),
(65,382,l)
);
},
{
closed = 1;
nodes = (
(227,544,l),
(227,134,l),
(313,134,l),
(313,544,l)
);
}
);
width = 540;
}
);
metricRight = "=|";
unicode = 43;
},
{
glyphname = multiply;
lastChange = "2025-08-05 15:19:57 +0000";
layers = (
{
layerId = m004;
shapes = (
{
closed = 1;
nodes = (
(136,457,l),
(398,195,l),
(424,221,l),
(162,483,l)
);
},
{
closed = 1;
nodes = (
(398,483,l),
(136,221,l),
(162,195,l),
(424,457,l)
);
}
);
width = 560;
},
{
layerId = m002;
shapes = (
{
closed = 1;
nodes = (
(386,513,l),
(96,223,l),
(154,165,l),
(444,455,l)
);
},
{
closed = 1;
nodes = (
(444,223,l),
(154,513,l),
(96,455,l),
(386,165,l)
);
}
);
width = 540;
}
);
metricRight = "=|";
unicode = 215;
},
{
glyphname = divide;
lastChange = "2025-08-05 15:19:57 +0000";
layers = (
{
layerId = m004;
shapes = (
{
closed = 1;
nodes = (
(95,321,l),
(465,321,l),
(465,357,l),
(95,357,l)
);
},
{
closed = 1;
nodes = (
(293,458,l),
(293,502,l),
(247,502,l),
(247,458,l)
);
},
{
closed = 1;
nodes = (
(293,176,l),
(293,220,l),
(247,220,l),
(247,176,l)
);
}
);
width = 560;
},
{
layerId = m002;
shapes = (
{
closed = 1;
nodes = (
(65,296,l),
(475,296,l),
(475,382,l),
(65,382,l)
);
},
{
closed = 1;
nodes = (
(313,458,l),
(313,544,l),
(227,544,l),
(227,458,l)
);
},
{
closed = 1;
nodes = (
(227,220,l),
(227,134,l),
(313,134,l),
(313,220,l)
);
}
);
width = 540;
}
);
metricRight = "=|";
unicode = 247;
},
{
glyphname = equal;
lastChange = "2025-08-05 15:19:57 +0000";
layers = (
{
layerId = m004;
shapes = (
{
closed = 1;
nodes = (
(95,411,l),
(465,411,l),
(465,447,l),
(95,447,l)
);
},
{
closed = 1;
nodes = (
(95,231,l),
(465,231,l),
(465,267,l),
(95,267,l)
);
}
);
width = 560;
},
{
layerId = m002;
shapes = (
{
closed = 1;
nodes = (
(95,386,l),
(465,386,l),
(465,472,l),
(95,472,l)
);
},
{
closed = 1;
nodes = (
(95,206,l),
(465,206,l),
(465,292,l),
(95,292,l)
);
}
);
width = 560;
}
);
metricRight = "=|";
unicode = 61;
},
{
glyphname = greater;
lastChange = "2025-08-05 15:19:57 +0000";
layers = (
{
layerId = m004;
shapes = (
{
closed = 1;
nodes = (
(140,449,l),
(540,215,l),
(540,251,l),
(140,486,l)
);
},
{
closed = 1;
nodes = (
(140,0,l),
(540,215,l),
(540,251,l),
(140,37,l)
);
}
);
width = 570;
},
{
layerId = m002;
shapes = (
{
closed = 1;
nodes = (
(70,486,l),
(500,296,l),
(500,382,l),
(70,582,l)
);
},
{
closed = 1;
nodes = (
(70,96,l),
(500,296,l),
(500,382,l),
(70,192,l)
);
}
);
width = 530;
}
);
unicode = 62;
},
{
glyphname = less;
lastChange = "2025-08-05 15:19:57 +0000";
layers = (
{
layerId = m004;
shapes = (
{
closed = 1;
nodes = (
(30,251,l),
(30,215,l),
(430,449,l),
(430,486,l)
);
},
{
closed = 1;
nodes = (
(30,251,l),
(30,215,l),
(430,0,l),
(430,37,l)
);
}
);
width = 570;
},
{
layerId = m002;
shapes = (
{
closed = 1;
nodes = (
(30,382,l),
(30,296,l),
(460,486,l),
(460,582,l)
);
},
{
closed = 1;
nodes = (
(30,382,l),
(30,296,l),
(460,96,l),
(460,192,l)
);
}
);
width = 530;
}
);
unicode = 60;
},
{
glyphname = dieresiscomb;
lastChange = "2025-08-05 15:19:57 +0000";
layers = (
{
anchors = (
{
name = _top;
pos = (146,450);
},
{
name = top;
pos = (146,642);
}
);
layerId = m004;
shapes = (
{
closed = 1;
nodes = (
(83,534,o),
(90,542,o),
(90,564,cs),
(90,585,o),
(83,592,o),
(61,592,cs),
(39,592,o),
(32,585,o),
(32,564,cs),
(32,542,o),
(39,534,o),
(61,534,cs)
);
},
{
closed = 1;
nodes = (
(254,534,o),
(260,541,o),
(260,564,cs),
(260,585,o),
(254,592,o),
(231,592,cs),
(208,592,o),
(202,585,o),
(202,564,cs),
(202,541,o),
(208,534,o),
(231,534,cs)
);
}
);
width = 300;
},
{
anchors = (
{
name = _top;
pos = (146,450);
},
{
name = top;
pos = (146,670);
}
);
layerId = m002;
shapes = (
{
closed = 1;
nodes = (
(102,561,o),
(113,574,o),
(113,614,cs),
(113,653,o),
(102,665,o),
(61,665,cs),
(20,665,o),
(9,653,o),
(9,614,cs),
(9,574,o),
(20,561,o),
(61,561,cs)
);
},
{
closed = 1;
nodes = (
(272,561,o),
(283,574,o),
(283,614,cs),
(283,653,o),
(272,665,o),
(231,665,cs),
(190,665,o),
(179,653,o),
(179,614,cs),
(179,574,o),
(190,561,o),
(231,561,cs)
);
}
);
width = 300;
}
);
unicode = 776;
},
{
glyphname = dotaccentcomb;
lastChange = "2025-08-05 15:19:57 +0000";
layers = (
{
anchors = (
{
name = _top;
pos = (61,450);
},
{
name = top;
pos = (61,592);
}
);
layerId = m004;
shapes = (
{
closed = 1;
nodes = (
(84,534,o),
(90,541,o),
(90,564,cs),
(90,585,o),
(84,592,o),
(61,592,cs),
(38,592,o),
(32,585,o),
(32,564,cs),
(32,541,o),
(38,534,o),
(61,534,cs)
);
}
);
width = 300;
},
{
anchors = (
{
name = _top;
pos = (61,450);
},
{
name = top;
pos = (61,670);
}
);
layerId = m002;
shapes = (
{
closed = 1;
nodes = (
(106,556,o),
(118,570,o),
(118,614,cs),
(118,657,o),
(106,670,o),
(61,670,cs),
(16,670,o),
(4,657,o),
(4,614,cs),
(4,570,o),
(16,556,o),
(61,556,cs)
);
}
);
width = 300;
}
);
unicode = 775;
},
{
glyphname = gravecomb;
lastChange = "2025-08-05 15:19:57 +0000";
layers = (
{
anchors = (
{
name = _top;
pos = (166,450);
},
{
name = top;
pos = (166,650);
}
);
layerId = m004;
shapes = (
{
closed = 1;
nodes = (
(102,650,l),
(195,532,l),
(229,532,l),
(157,650,l)
);
}
);
width = 300;
},
{
anchors = (
{
name = _top;
pos = (171,450);
},
{
name = top;
pos = (171,650);
}
);
layerId = m002;
shapes = (
{
closed = 1;
nodes = (
(82,650,l),
(185,502,l),
(249,502,l),
(177,650,l)
);
}
);
width = 300;
}
);
unicode = 768;
},
{
glyphname = acutecomb;
lastChange = "2025-08-05 15:19:57 +0000";
layers = (
{
anchors = (
{
name = _top;
pos = (166,450);
},
{
name = top;
pos = (166,650);
}
);
layerId = m004;
shapes = (
{
closed = 1;
nodes = (
(102,532,l),
(136,532,l),
(229,650,l),
(174,650,l)
);
}
);
width = 300;
},
{
anchors = (
{
name = _top;
pos = (171,450);
},
{
name = top;
pos = (171,650);
}
);
layerId = m002;
shapes = (
{
closed = 1;
nodes = (
(102,502,l),
(166,502,l),
(269,650,l),
(174,650,l)
);
}
);
width = 300;
}
);
unicode = 769;
},
{
glyphname = hungarumlautcomb;
lastChange = "2025-08-05 15:19:57 +0000";
layers = (
{
anchors = (
{
name = _top;
pos = (196,450);
},
{
name = top;
pos = (196,650);
}
);
layerId = m004;
shapes = (
{
closed = 1;
nodes = (
(52,532,l),
(86,532,l),
(179,650,l),
(124,650,l)
);
},
{
closed = 1;
nodes = (
(152,532,l),
(186,532,l),
(279,650,l),
(224,650,l)
);
}
);
width = 300;
},
{
anchors = (
{
name = _top;
pos = (136,450);
},
{
name = top;
pos = (136,640);
}
);
layerId = m002;
shapes = (
{
closed = 1;
nodes = (
(32,502,l),
(86,502,l),
(189,640,l),
(104,640,l)
);
},
{
closed = 1;
nodes = (
(163,502,l),
(217,502,l),
(320,640,l),
(235,640,l)
);
}
);
width = 300;
}
);
unicode = 779;
},
{
glyphname = circumflexcomb;
lastChange = "2025-08-05 15:19:57 +0000";
layers = (
{
anchors = (
{
name = _top;
pos = (122,450);
},
{
name = top;
pos = (122,650);
}
);
layerId = m004;
shapes = (
{
closed = 1;
nodes = (
(7,532,l),
(46,532,l),
(144,650,l),
(99,650,l)
);
},
{
closed = 1;
nodes = (
(99,650,l),
(197,532,l),
(236,532,l),
(144,650,l)
);
}
);
width = 300;
},
{
anchors = (
{
name = _top;
pos = (154,450);
},
{
name = top;
pos = (154,640);
}
);
layerId = m002;
shapes = (
{
closed = 1;
nodes = (
(186,640,l),
(122,640,l),
(19,502,l),
(84,502,l)
);
},
{
closed = 1;
nodes = (
(289,502,l),
(186,640,l),
(122,640,l),
(224,502,l)
);
}
);
width = 300;
}
);
unicode = 770;
},
{
glyphname = caroncomb;
lastChange = "2025-08-05 15:19:57 +0000";
layers = (
{
anchors = (
{
name = _top;
pos = (122,450);
},
{
name = top;
pos = (122,650);
}
);
layerId = m004;
shapes = (
{
closed = 1;
nodes = (
(144,532,l),
(46,650,l),
(7,650,l),
(99,532,l)
);
},
{
closed = 1;
nodes = (
(236,650,l),
(197,650,l),
(99,532,l),
(144,532,l)
);
}
);
width = 300;
},
{
anchors = (
{
name = _top;
pos = (154,450);
},
{
name = top;
pos = (154,640);
}
);
layerId = m002;
shapes = (
{
closed = 1;
nodes = (
(19,640,l),
(122,502,l),
(186,502,l),
(84,640,l)
);
},
{
closed = 1;
nodes = (
(122,502,l),
(186,502,l),
(289,640,l),
(224,640,l)
);
}
);
width = 300;
}
);
unicode = 780;
},
{
glyphname = ringcomb;
lastChange = "2025-08-05 15:19:57 +0000";
layers = (
{
anchors = (
{
name = _top;
pos = (106,450);
},
{
name = top;
pos = (106,639);
}
);
layerId = m004;
shapes = (
{
closed = 1;
nodes = (
(147,519,o),
(166,538,o),
(166,579,cs),
(166,620,o),
(147,639,o),
(106,639,cs),
(65,639,o),
(46,620,o),
(46,579,cs),
(46,538,o),
(65,519,o),
(106,519,cs)
);
},
{
closed = 1;
nodes = (
(83,551,o),
(78,556,o),
(78,579,cs),
(78,602,o),
(83,607,o),
(106,607,cs),
(129,607,o),
(134,602,o),
(134,579,cs),
(134,556,o),
(129,551,o),
(106,551,cs)
);
}
);
width = 300;
},
{
anchors = (
{
name = _top;
pos = (107,450);
},
{
name = top;
pos = (106,690);
}
);
layerId = m002;
shapes = (
{
closed = 1;
nodes = (
(155,508,o),
(177,530,o),
(177,579,cs),
(177,628,o),
(155,650,o),
(106,650,cs),
(57,650,o),
(35,628,o),
(35,579,cs),
(35,530,o),
(57,508,o),
(106,508,cs)
);
},
{
closed = 1;
nodes = (
(82,549,o),
(76,555,o),
(76,579,cs),
(76,603,o),
(82,609,o),
(106,609,cs),
(130,609,o),
(136,603,o),
(136,579,cs),
(136,555,o),
(130,549,o),
(106,549,cs)
);
}
);
width = 300;
}
);
unicode = 778;
},
{
glyphname = tildecomb;
lastChange = "2025-08-05 15:19:57 +0000";
layers = (
{
anchors = (
{
name = _top;
pos = (159,450);
},
{
name = top;
}
);
layerId = m004;
shapes = (
{
closed = 1;
nodes = (
(29,576,l),
(124,663,o),
(196,490,o),
(289,576,c),
(289,610,l),
(206,529,o),
(132,700,o),
(29,610,c)
);
}
);
width = 300;
},
{
anchors = (
{
name = _top;
pos = (145,450);
},
{
name = top;
}
);
background = {
shapes = (
{
closed = 1;
nodes = (
(134,608,o),
(160,557,o),
(211,557,cs),
(265,557,o),
(275,624,o),
(275,659,c),
(225,659,l),
(225,634,o),
(225,610,o),
(201,610,cs),
(173,610,o),
(147,661,o),
(96,661,cs),
(42,661,o),
(32,594,o),
(32,559,c),
(82,559,l),
(82,584,o),
(82,608,o),
(106,608,cs)
);
}
);
};
layerId = m002;
shapes = (
{
closed = 1;
nodes = (
(29,540,l),
(124,623,o),
(196,450,o),
(289,540,c),
(289,610,l),
(206,529,o),
(132,700,o),
(29,610,c)
);
}
);
width = 300;
}
);
unicode = 771;
},
